<svg xmlns="http://www.w3.org/2000/svg" xmlns:xlink="http://www.w3.org/1999/xlink" width="500" zoomAndPan="magnify" viewBox="0 0 375 374.999991" height="500" preserveAspectRatio="xMidYMid meet" version="1.0"><defs><g/><clipPath id="ae6209e6cb"><path d="M 49.277344 0.734375 L 81 0.734375 L 81 68.449219 L 49.277344 68.449219 Z M 49.277344 0.734375 " clip-rule="nonzero"/></clipPath><clipPath id="3e8e8f3d14"><path d="M 61 65 L 77 65 L 77 68.449219 L 61 68.449219 Z M 61 65 " clip-rule="nonzero"/></clipPath><clipPath id="f05841c876"><path d="M 59.804688 13.769531 L 71.753906 13.769531 L 71.753906 20.144531 L 59.804688 20.144531 Z M 59.804688 13.769531 " clip-rule="nonzero"/></clipPath><clipPath id="0feca885df"><rect x="0" width="358" y="0" height="77"/></clipPath></defs><rect x="-37.5" width="450" fill="#ffffff" y="-37.499999" height="449.999989" fill-opacity="1"/><rect x="-37.5" width="450" fill="#1e1e1e" y="-37.499999" height="449.999989" fill-opacity="1"/><g transform="matrix(1, 0, 0, 1, 12, 116)"><g clip-path="url(#0feca885df)"><g clip-path="url(#ae6209e6cb)"><path fill="#3f3f3f" d="M 80.316406 66.511719 C 80.273438 66.511719 80.257812 66.511719 80.242188 66.507812 C 80.230469 66.507812 80.214844 66.507812 80.203125 66.507812 C 80.183594 66.503906 80.171875 66.5 80.152344 66.496094 C 80.113281 66.484375 80.105469 66.480469 80.09375 66.472656 C 80.0625 66.445312 80.042969 66.242188 80.042969 66.242188 L 79.835938 66.257812 L 78.128906 66.363281 L 78.078125 66.367188 L 78.035156 66.390625 C 77.945312 66.441406 77.75 66.539062 77.53125 66.621094 C 77.449219 66.648438 77.367188 66.675781 77.28125 66.699219 L 77.277344 66.597656 C 77.582031 66.507812 77.882812 66.359375 77.988281 66.300781 L 78.03125 66.277344 C 78.074219 66.265625 78.121094 66.261719 78.121094 66.261719 L 79.828125 66.15625 L 80.035156 66.140625 L 80.132812 66.136719 L 80.140625 66.230469 L 80.160156 66.394531 C 80.183594 66.402344 80.226562 66.410156 80.289062 66.410156 C 80.414062 66.40625 80.484375 66.382812 80.519531 66.367188 L 80.503906 65.925781 L 80.105469 65.941406 L 80.007812 65.699219 L 79.925781 65.949219 L 78.175781 66.011719 L 78.023438 65.707031 L 77.894531 66.023438 L 77.257812 66.046875 L 77.230469 65.394531 C 77.402344 65.429688 77.570312 65.480469 77.703125 65.527344 C 77.882812 65.589844 78.007812 65.648438 78.007812 65.648438 L 78.054688 65.671875 L 78.101562 65.667969 L 79.8125 65.648438 L 80.019531 65.644531 L 80.027344 65.4375 C 80.027344 65.417969 80.113281 65.363281 80.273438 65.355469 C 80.320312 65.355469 80.339844 65.359375 80.355469 65.359375 C 80.371094 65.363281 80.386719 65.363281 80.398438 65.363281 C 80.421875 65.367188 80.4375 65.371094 80.453125 65.375 C 80.464844 65.375 80.476562 65.378906 80.488281 65.382812 C 80.503906 65.386719 80.515625 65.390625 80.53125 65.398438 C 80.566406 65.414062 80.578125 65.421875 80.585938 65.425781 L 80.605469 65.921875 L 80.621094 66.417969 C 80.597656 66.445312 80.488281 66.503906 80.316406 66.511719 Z M 64.140625 67.578125 C 64.140625 67.578125 63.546875 67.996094 62.832031 68.023438 C 62.816406 68.023438 62.796875 68.023438 62.78125 68.023438 C 61.667969 68.023438 61.613281 66.636719 61.613281 66.636719 C 61.613281 66.636719 61.558594 65.203125 62.722656 65.160156 C 62.75 65.160156 62.773438 65.160156 62.796875 65.160156 C 63.480469 65.160156 64.0625 65.507812 64.0625 65.507812 L 76.789062 65.140625 L 76.859375 66.992188 Z M 77.417969 30.96875 C 79.164062 31.941406 78.96875 36.585938 78.800781 38.539062 C 78.253906 44.964844 76.75 49.773438 74.261719 53.019531 C 73.710938 52.03125 73.09375 51.121094 72.484375 50.21875 C 70.6875 47.570312 68.832031 44.835938 68.832031 40.261719 C 68.832031 40.066406 69.210938 39.648438 69.539062 39.421875 C 69.714844 39.300781 69.816406 39.101562 69.816406 38.890625 C 69.816406 37.988281 69.503906 37.433594 69.160156 37.121094 C 69.773438 35.730469 72.367188 33.890625 74.152344 32.628906 L 74.1875 32.601562 C 74.445312 32.417969 74.699219 32.238281 74.945312 32.0625 C 75.140625 31.921875 75.183594 31.652344 75.042969 31.460938 L 74.945312 31.324219 C 75.789062 30.859375 76.742188 30.59375 77.417969 30.96875 Z M 62.847656 37.632812 L 67.988281 37.632812 C 68.054688 37.921875 68.15625 38.359375 68.210938 38.644531 L 62.871094 38.890625 L 68.042969 39.132812 C 67.882812 39.335938 67.683594 39.640625 67.59375 39.957031 L 63.367188 39.957031 C 63.15625 39.386719 62.441406 38.890625 62.441406 38.890625 C 62.441406 38.195312 62.652344 37.828125 62.847656 37.632812 Z M 63.878906 27.707031 L 64.492188 27.707031 C 64.492188 27.707031 64.800781 27.707031 64.800781 27.707031 L 67.117188 27.707031 C 67.117188 27.707031 67.734375 27.707031 67.734375 27.707031 C 67.734375 27.707031 66.808594 28.753906 66.808594 30.351562 C 66.808594 31.445312 66.808594 32.730469 66.808594 33.429688 L 66.550781 33.429688 L 66.550781 30.351562 C 66.550781 29.273438 66.945312 28.4375 67.234375 27.964844 L 66.554688 27.964844 C 66.453125 28.148438 66.34375 28.363281 66.25 28.605469 L 64.707031 28.8125 L 66.125 29.003906 C 66.066406 29.226562 66.03125 29.460938 66.03125 29.695312 C 66.03125 30.671875 66.03125 32.714844 66.03125 33.429688 L 64.800781 33.429688 C 64.800781 32.730469 64.800781 31.445312 64.800781 30.351562 C 64.800781 28.753906 63.878906 27.707031 63.878906 27.707031 Z M 63.972656 20.078125 L 64.492188 20.078125 C 64.492188 20.078125 67.117188 20.078125 67.117188 20.078125 C 67.117188 20.078125 67.640625 20.078125 67.640625 20.078125 C 67.640625 20.078125 66.871094 21.539062 66.8125 27.070312 L 66.554688 27.070312 C 66.59375 22.957031 67.03125 21.0625 67.265625 20.335938 L 66.5625 20.335938 C 66.535156 20.496094 66.507812 20.683594 66.476562 20.902344 L 64.609375 21.132812 L 66.414062 21.351562 C 66.242188 22.648438 66.046875 24.648438 66.03125 27.070312 L 64.796875 27.070312 C 64.742188 21.539062 63.972656 20.078125 63.972656 20.078125 Z M 63.507812 10.269531 C 63.507812 10.269531 64.253906 9.816406 64.253906 8.65625 C 64.253906 8.136719 64.113281 7.753906 63.960938 7.488281 L 66.691406 7.488281 C 66.625 7.828125 66.535156 8.378906 66.535156 8.898438 C 66.535156 9.503906 66.835938 9.890625 67.007812 10.054688 L 63.914062 10.285156 L 67.117188 10.523438 L 67.117188 10.6875 L 67.847656 10.6875 L 67.847656 10.398438 C 67.605469 10.199219 67.101562 9.660156 67.101562 8.65625 C 67.101562 8.160156 67.21875 7.777344 67.359375 7.488281 L 67.652344 7.488281 C 67.5 7.753906 67.359375 8.136719 67.359375 8.65625 C 67.359375 9.816406 68.105469 10.269531 68.105469 10.269531 L 68.105469 10.945312 L 67.117188 10.945312 C 67.117188 10.945312 66.808594 10.945312 66.808594 10.945312 L 63.507812 10.945312 Z M 67.425781 5.476562 C 67.363281 5.601562 67.296875 5.753906 67.230469 5.933594 L 63.636719 6.164062 L 67.097656 6.386719 C 67.0625 6.53125 67.035156 6.6875 67.019531 6.851562 L 63.554688 6.851562 C 63.507812 6.261719 63.210938 5.773438 62.980469 5.476562 Z M 65.808594 1.382812 L 68.914062 1.382812 L 68.914062 4.84375 L 68.65625 4.84375 L 68.65625 1.640625 L 67.6875 1.640625 L 67.6875 1.921875 L 62.949219 2.144531 L 67.6875 2.371094 L 67.6875 4.101562 L 62.949219 4.328125 L 67.6875 4.554688 L 67.6875 4.84375 L 62.699219 4.84375 L 62.699219 1.382812 C 62.699219 1.382812 65.808594 1.382812 65.808594 1.382812 Z M 68.3125 5.476562 L 68.632812 5.476562 C 68.402344 5.773438 68.105469 6.261719 68.058594 6.851562 L 67.800781 6.851562 C 67.839844 6.285156 68.082031 5.808594 68.3125 5.476562 Z M 66.550781 19.441406 L 66.550781 13.933594 L 66.808594 13.933594 L 66.808594 19.441406 Z M 64.800781 19.441406 L 64.800781 13.933594 L 66.03125 13.933594 L 66.03125 14.34375 L 64.886719 14.535156 L 66.03125 14.726562 L 66.03125 19.441406 Z M 74.695312 31.710938 C 74.4375 31.898438 74.171875 32.085938 73.898438 32.277344 C 72.183594 33.496094 69.964844 35.070312 69.035156 36.472656 C 69.015625 36.328125 68.996094 36.195312 68.972656 36.0625 C 69.996094 34.695312 72.015625 33.261719 73.734375 32.042969 L 73.769531 32.019531 C 73.945312 31.894531 74.121094 31.769531 74.292969 31.648438 L 73.792969 30.957031 C 71.816406 32.265625 69.894531 33.589844 68.667969 35.015625 C 68.515625 34.660156 68.335938 34.375 68.152344 34.148438 C 69.371094 32.847656 71.070312 31.644531 72.644531 30.523438 C 72.914062 30.332031 73.175781 30.148438 73.429688 29.964844 Z M 68.910156 38.761719 C 68.871094 37.832031 68.398438 37.679688 68.378906 37.675781 L 68.234375 37.632812 L 68.765625 37.632812 C 68.960938 37.828125 69.171875 38.195312 69.171875 38.890625 C 69.171875 38.890625 68.457031 39.386719 68.246094 39.957031 L 67.972656 39.957031 C 68.128906 39.414062 68.664062 38.949219 68.910156 38.761719 Z M 57.488281 12.105469 C 57.488281 12.105469 64.492188 12.105469 64.492188 12.105469 L 74.125 12.105469 C 74.125 12.105469 72.410156 13.296875 68.527344 13.296875 C 67.949219 13.296875 67.449219 13.296875 67.136719 13.296875 C 66.925781 13.296875 66.808594 13.296875 66.808594 13.296875 L 64.800781 13.296875 C 64.800781 13.296875 64.6875 13.296875 64.492188 13.296875 C 64.183594 13.296875 63.671875 13.296875 63.085938 13.296875 C 59.203125 13.296875 57.488281 12.105469 57.488281 12.105469 Z M 64.507812 34.074219 L 67.105469 34.074219 C 67.542969 34.328125 68.328125 35.054688 68.433594 36.992188 L 68.171875 36.992188 C 68.039062 34.550781 66.804688 34.207031 66.75 34.195312 L 66.644531 34.167969 C 66.875 34.578125 67.195312 35.296875 67.34375 36.265625 L 63.503906 36.496094 L 67.398438 36.730469 C 67.40625 36.816406 67.410156 36.902344 67.414062 36.992188 L 63.179688 36.992188 C 63.28125 35.054688 64.070312 34.328125 64.507812 34.074219 Z M 61.09375 33.65625 C 61.078125 33.671875 61.054688 33.679688 61.035156 33.679688 C 61 33.679688 60.96875 33.664062 60.941406 33.636719 L 58.660156 31.054688 C 58.617188 31.007812 58.617188 30.9375 58.65625 30.902344 L 59.144531 30.472656 L 59.628906 30.046875 C 59.648438 30.03125 59.667969 30.027344 59.691406 30.027344 C 59.722656 30.027344 59.757812 30.039062 59.78125 30.070312 L 62.066406 32.652344 C 62.109375 32.699219 62.109375 32.769531 62.066406 32.804688 C 62.027344 32.839844 62.027344 32.910156 62.070312 32.957031 L 63.304688 34.355469 C 63.253906 34.425781 63.207031 34.5 63.160156 34.582031 L 61.875 33.128906 C 61.8125 33.058594 61.777344 32.96875 61.777344 32.878906 C 61.777344 32.832031 61.785156 32.785156 61.800781 32.742188 L 61.292969 32.167969 L 60.65625 32.726562 C 60.882812 32.980469 61.046875 33.167969 61.078125 33.203125 C 61.191406 33.332031 61.167969 33.082031 61.796875 33.796875 C 62.09375 34.132812 62.535156 34.628906 62.921875 35.066406 C 62.875 35.179688 62.832031 35.300781 62.792969 35.425781 L 61.25 33.679688 C 61.222656 33.648438 61.191406 33.636719 61.15625 33.636719 C 61.132812 33.636719 61.113281 33.644531 61.09375 33.65625 Z M 56.183594 59.789062 C 56.183594 51.511719 63.246094 49.601562 63.417969 40.597656 L 67.414062 40.597656 C 67.421875 40.859375 67.429688 41.113281 67.445312 41.363281 L 63.667969 41.605469 L 67.484375 41.855469 C 67.933594 46.5625 70.332031 49.222656 72.183594 52.246094 C 67.734375 52.597656 63.261719 52.679688 58.792969 52.484375 C 63.339844 52.855469 67.914062 52.945312 72.480469 52.75 C 72.816406 53.324219 73.125 53.917969 73.394531 54.546875 C 71.019531 57.339844 67.84375 58.734375 63.734375 58.78125 C 61.140625 58.8125 58.632812 58.980469 56.777344 59.265625 C 56.773438 60.023438 56.875 60.632812 57.042969 61.03125 C 58.691406 60.761719 60.875 60.570312 63.757812 60.535156 C 67.996094 60.484375 71.425781 59.117188 74.039062 56.457031 C 74.285156 57.457031 74.421875 58.550781 74.390625 59.789062 C 74.371094 60.835938 74.253906 61.589844 73.585938 62.113281 C 74.984375 61.554688 75.171875 60.746094 75.171875 59.789062 C 75.171875 55.789062 73.5 53.328125 71.734375 50.722656 C 69.90625 48.03125 68.023438 45.242188 67.933594 40.597656 L 68.195312 40.597656 C 68.367188 49.601562 75.429688 51.511719 75.429688 59.789062 C 75.429688 62.023438 74.222656 63.183594 65.808594 63.183594 C 65.753906 63.183594 65.703125 63.183594 65.648438 63.183594 C 65.628906 63.183594 65.613281 63.183594 65.59375 63.183594 C 57.375 63.164062 56.183594 62.007812 56.183594 59.789062 Z M 80.800781 65.40625 C 80.792969 65.226562 80.523438 65.132812 80.265625 65.140625 C 80.035156 65.152344 79.816406 65.242188 79.808594 65.433594 L 78.097656 65.453125 C 78.097656 65.453125 77.667969 65.253906 77.222656 65.175781 L 77.222656 65.121094 C 77.210938 64.890625 77.019531 64.707031 76.789062 64.707031 C 76.777344 64.707031 64.164062 65.074219 64.164062 65.074219 C 63.933594 64.957031 63.40625 64.726562 62.796875 64.726562 C 62.769531 64.726562 62.738281 64.730469 62.707031 64.730469 C 62.050781 64.753906 61.5625 65.121094 61.328125 65.765625 C 54.210938 65.394531 51.183594 63.378906 51.191406 62.585938 C 51.191406 62.242188 52.097656 61.269531 55.601562 60.609375 C 56.039062 63.054688 58.679688 63.832031 65.804688 63.832031 C 73.675781 63.832031 76.074219 62.886719 76.074219 59.789062 C 76.074219 57.875 75.710938 56.28125 75.144531 54.867188 C 78.203125 51.3125 80.050781 45.917969 80.667969 38.695312 C 81.109375 33.519531 80.34375 30.460938 78.332031 29.339844 C 76.726562 28.449219 74.953125 29.148438 73.84375 29.804688 L 73.78125 29.714844 C 73.695312 29.597656 73.5625 29.535156 73.429688 29.535156 C 73.339844 29.535156 73.253906 29.5625 73.175781 29.617188 C 72.925781 29.796875 72.664062 29.984375 72.394531 30.171875 C 70.808594 31.300781 69.105469 32.507812 67.855469 33.835938 C 67.714844 33.710938 67.578125 33.609375 67.457031 33.539062 L 67.457031 30.351562 C 67.457031 29.035156 68.214844 28.140625 68.222656 28.128906 C 68.386719 27.9375 68.425781 27.667969 68.320312 27.4375 C 68.214844 27.210938 67.988281 27.0625 67.734375 27.0625 L 67.460938 27.0625 C 67.511719 21.878906 68.210938 20.382812 68.214844 20.367188 C 68.324219 20.167969 68.3125 19.933594 68.195312 19.742188 C 68.078125 19.546875 67.867188 19.433594 67.640625 19.433594 L 67.457031 19.433594 L 67.457031 13.945312 L 68.523438 13.945312 C 72.566406 13.945312 74.414062 12.6875 74.492188 12.632812 C 74.726562 12.472656 74.824219 12.179688 74.742188 11.914062 C 74.65625 11.644531 74.40625 11.460938 74.121094 11.460938 L 68.492188 11.460938 C 68.648438 11.34375 68.75 11.15625 68.75 10.945312 L 68.75 10.269531 C 68.75 10.035156 68.648438 9.835938 68.445312 9.722656 C 68.390625 9.679688 68.003906 9.375 68.003906 8.65625 C 68.003906 7.914062 68.375 7.582031 68.429688 7.535156 C 68.609375 7.417969 68.695312 7.230469 68.695312 7.011719 C 68.695312 6.25 69.339844 5.648438 69.347656 5.640625 C 69.480469 5.519531 69.558594 5.34375 69.558594 5.164062 L 69.558594 1.382812 C 69.558594 1.027344 69.269531 0.738281 68.914062 0.738281 L 62.699219 0.738281 C 62.339844 0.738281 62.050781 1.027344 62.050781 1.382812 L 62.050781 5.164062 C 62.050781 5.347656 62.128906 5.523438 62.265625 5.644531 C 62.269531 5.648438 62.914062 6.25 62.914062 7.011719 C 62.914062 7.230469 63 7.417969 63.183594 7.535156 C 63.238281 7.582031 63.605469 7.914062 63.605469 8.65625 C 63.605469 9.375 63.222656 9.679688 63.164062 9.722656 C 62.960938 9.835938 62.859375 10.035156 62.859375 10.269531 L 62.859375 10.945312 C 62.859375 11.15625 62.960938 11.34375 63.121094 11.460938 L 57.488281 11.460938 C 57.207031 11.460938 56.953125 11.644531 56.871094 11.914062 C 56.785156 12.179688 56.886719 12.472656 57.117188 12.632812 C 57.195312 12.6875 59.046875 13.945312 63.085938 13.945312 L 64.15625 13.945312 L 64.15625 19.433594 L 63.972656 19.433594 C 63.746094 19.433594 63.535156 19.554688 63.417969 19.746094 C 63.300781 19.9375 63.292969 20.179688 63.398438 20.378906 C 63.402344 20.382812 64.097656 21.878906 64.152344 27.0625 L 63.878906 27.0625 C 63.621094 27.0625 63.394531 27.210938 63.289062 27.441406 C 63.183594 27.671875 63.222656 27.941406 63.390625 28.132812 C 63.394531 28.140625 64.15625 29.035156 64.15625 30.351562 L 64.15625 33.539062 C 63.945312 33.664062 63.699219 33.859375 63.460938 34.148438 L 62.328125 32.867188 C 62.34375 32.824219 62.351562 32.777344 62.351562 32.730469 C 62.351562 32.640625 62.316406 32.554688 62.257812 32.484375 L 59.972656 29.902344 C 59.898438 29.820312 59.796875 29.773438 59.691406 29.773438 C 59.605469 29.773438 59.523438 29.804688 59.460938 29.859375 L 58.976562 30.285156 L 58.488281 30.710938 C 58.414062 30.777344 58.371094 30.875 58.371094 30.976562 C 58.375 31.066406 58.40625 31.152344 58.46875 31.222656 L 60.75 33.804688 C 60.824219 33.886719 60.925781 33.933594 61.035156 33.933594 C 61.066406 33.933594 61.09375 33.929688 61.125 33.921875 L 62.710938 35.71875 C 62.617188 36.101562 62.550781 36.539062 62.527344 37.050781 C 62.15625 37.347656 61.792969 37.917969 61.792969 38.890625 C 61.792969 39.105469 61.898438 39.300781 62.074219 39.421875 C 62.398438 39.648438 62.777344 40.066406 62.777344 40.261719 C 62.777344 44.835938 60.921875 47.570312 59.128906 50.21875 C 57.515625 52.59375 55.855469 55.050781 55.578125 58.71875 C 51.503906 59.429688 49.328125 60.742188 49.316406 62.574219 C 49.300781 65.261719 54.238281 67.296875 61.449219 67.636719 C 61.683594 68.078125 62.097656 68.457031 62.78125 68.457031 C 62.804688 68.457031 62.824219 68.457031 62.847656 68.453125 C 63.492188 68.429688 64.046875 68.144531 64.277344 68.003906 L 76.878906 67.421875 C 77.117188 67.410156 77.300781 67.210938 77.292969 66.972656 L 77.289062 66.921875 C 77.726562 66.808594 78.140625 66.578125 78.140625 66.578125 L 79.851562 66.472656 C 79.871094 66.660156 80.09375 66.734375 80.324219 66.726562 C 80.582031 66.71875 80.847656 66.601562 80.839844 66.421875 C 80.828125 66.082031 80.820312 65.914062 80.820312 65.914062 C 80.820312 65.914062 80.8125 65.746094 80.800781 65.40625 " fill-opacity="1" fill-rule="nonzero"/></g><path fill="#ffffff" d="M 80.585938 65.425781 C 80.578125 65.421875 80.566406 65.414062 80.550781 65.40625 C 80.515625 65.390625 80.503906 65.386719 80.488281 65.382812 C 80.476562 65.378906 80.464844 65.375 80.453125 65.375 C 80.4375 65.371094 80.421875 65.367188 80.398438 65.363281 C 80.386719 65.363281 80.371094 65.363281 80.355469 65.359375 C 80.339844 65.359375 80.320312 65.355469 80.304688 65.355469 C 80.113281 65.363281 80.027344 65.417969 80.027344 65.4375 L 80.019531 65.644531 L 79.8125 65.648438 L 78.101562 65.667969 L 78.054688 65.671875 L 78.007812 65.648438 C 78.007812 65.648438 77.882812 65.589844 77.703125 65.527344 C 77.570312 65.480469 77.402344 65.429688 77.234375 65.394531 C 77.230469 65.394531 77.257812 66.046875 77.257812 66.046875 L 77.894531 66.023438 L 78.023438 65.707031 L 78.175781 66.011719 L 79.925781 65.949219 L 80.007812 65.699219 L 80.105469 65.941406 L 80.503906 65.925781 L 80.519531 66.367188 C 80.484375 66.382812 80.414062 66.40625 80.3125 66.410156 C 80.226562 66.410156 80.183594 66.402344 80.160156 66.394531 L 80.140625 66.230469 L 80.132812 66.136719 L 80.035156 66.140625 L 79.828125 66.15625 L 78.121094 66.261719 L 78.074219 66.265625 C 78.03125 66.277344 77.988281 66.300781 77.988281 66.300781 C 77.882812 66.359375 77.582031 66.507812 77.277344 66.597656 L 77.28125 66.699219 C 77.367188 66.675781 77.449219 66.648438 77.53125 66.621094 C 77.75 66.539062 77.945312 66.441406 78.035156 66.390625 L 78.078125 66.367188 L 78.128906 66.363281 L 79.835938 66.257812 L 80.042969 66.242188 L 80.0625 66.445312 C 80.105469 66.480469 80.113281 66.484375 80.128906 66.488281 C 80.171875 66.5 80.183594 66.503906 80.203125 66.507812 C 80.214844 66.507812 80.230469 66.507812 80.242188 66.507812 C 80.257812 66.511719 80.273438 66.511719 80.289062 66.511719 C 80.488281 66.503906 80.597656 66.445312 80.621094 66.417969 L 80.605469 65.921875 L 80.585938 65.425781 " fill-opacity="1" fill-rule="nonzero"/><path fill="#3f3f3f" d="M 76.710938 66.855469 L 76.695312 66.417969 L 75.960938 66.441406 L 75.75 65.292969 L 75.625 66.453125 L 73.632812 66.527344 L 73.40625 65.339844 L 73.273438 66.539062 L 71.285156 66.609375 L 71.070312 65.46875 L 70.941406 66.621094 L 68.941406 66.691406 L 68.726562 65.472656 L 68.605469 66.703125 L 66.59375 66.777344 L 66.386719 65.601562 L 66.269531 66.789062 L 64.269531 66.859375 L 64.042969 65.585938 L 63.902344 67.03125 C 63.695312 67.175781 63.347656 67.359375 62.886719 67.378906 C 62.351562 67.398438 62.007812 67.214844 61.847656 67.105469 C 61.960938 67.460938 62.210938 67.882812 62.78125 67.882812 C 62.796875 67.882812 62.8125 67.882812 62.828125 67.878906 C 63.488281 67.855469 64.050781 67.464844 64.058594 67.460938 L 64.09375 67.4375 L 64.132812 67.4375 L 76.710938 66.855469 " fill-opacity="1" fill-rule="nonzero"/><g clip-path="url(#3e8e8f3d14)"><path fill="#ffffff" d="M 64.058594 67.460938 C 64.050781 67.464844 63.488281 67.855469 62.828125 67.878906 C 62.8125 67.882812 62.796875 67.882812 62.78125 67.882812 C 62.210938 67.882812 61.960938 67.460938 61.847656 67.105469 C 62.007812 67.214844 62.351562 67.398438 62.886719 67.378906 C 63.347656 67.359375 63.695312 67.175781 63.902344 67.03125 L 64.042969 65.585938 L 64.269531 66.859375 L 66.269531 66.789062 L 66.386719 65.601562 L 66.59375 66.777344 L 68.605469 66.703125 L 68.726562 65.472656 L 68.941406 66.691406 L 70.941406 66.621094 L 71.070312 65.46875 L 71.285156 66.609375 L 73.273438 66.539062 L 73.40625 65.339844 L 73.632812 66.527344 L 75.625 66.453125 L 75.75 65.292969 L 75.960938 66.441406 L 76.695312 66.417969 L 76.710938 66.855469 L 64.132812 67.4375 L 64.09375 67.4375 Z M 76.789062 65.140625 L 64.0625 65.507812 C 64.0625 65.507812 63.480469 65.160156 62.796875 65.160156 C 62.773438 65.160156 62.75 65.160156 62.722656 65.160156 C 61.558594 65.203125 61.613281 66.636719 61.613281 66.636719 C 61.613281 66.636719 61.667969 68.023438 62.78125 68.023438 C 62.796875 68.023438 62.816406 68.023438 62.832031 68.023438 C 63.546875 67.996094 64.140625 67.578125 64.140625 67.578125 L 76.859375 66.992188 L 76.789062 65.140625 " fill-opacity="1" fill-rule="nonzero"/></g><path fill="#3f3f3f" d="M 59.316406 30.667969 L 59.042969 30.90625 C 59.125 30.996094 59.257812 31.144531 59.414062 31.324219 L 60.054688 30.765625 L 59.683594 30.347656 L 59.316406 30.667969 " fill-opacity="1" fill-rule="nonzero"/><path fill="#3f3f3f" d="M 60.117188 32.117188 C 60.25 32.265625 60.378906 32.414062 60.5 32.550781 L 61.136719 31.992188 L 60.753906 31.558594 L 60.117188 32.117188 " fill-opacity="1" fill-rule="nonzero"/><path fill="#3f3f3f" d="M 60.210938 30.945312 L 59.574219 31.503906 C 59.695312 31.640625 59.824219 31.785156 59.957031 31.9375 L 60.59375 31.378906 L 60.210938 30.945312 " fill-opacity="1" fill-rule="nonzero"/><path fill="#ffffff" d="M 60.5 32.550781 C 60.378906 32.414062 60.25 32.265625 60.117188 32.117188 L 60.753906 31.558594 L 61.136719 31.992188 Z M 59.414062 31.324219 C 59.257812 31.144531 59.125 30.996094 59.042969 30.90625 L 59.316406 30.667969 L 59.683594 30.347656 L 60.054688 30.765625 Z M 59.574219 31.503906 L 60.210938 30.945312 L 60.59375 31.378906 L 59.957031 31.9375 C 59.824219 31.785156 59.695312 31.640625 59.574219 31.503906 Z M 62.792969 35.425781 C 62.832031 35.300781 62.875 35.179688 62.921875 35.066406 C 62.535156 34.628906 62.09375 34.132812 61.796875 33.796875 C 61.167969 33.082031 61.191406 33.332031 61.078125 33.203125 C 61.046875 33.167969 60.882812 32.980469 60.65625 32.726562 L 61.292969 32.167969 L 61.800781 32.742188 C 61.785156 32.785156 61.777344 32.832031 61.777344 32.878906 C 61.777344 32.96875 61.8125 33.058594 61.875 33.128906 L 63.160156 34.582031 C 63.207031 34.5 63.253906 34.425781 63.304688 34.355469 L 62.070312 32.957031 C 62.027344 32.910156 62.027344 32.839844 62.066406 32.804688 C 62.109375 32.769531 62.109375 32.699219 62.066406 32.652344 L 59.78125 30.070312 C 59.757812 30.039062 59.722656 30.027344 59.691406 30.027344 C 59.667969 30.027344 59.648438 30.03125 59.628906 30.046875 L 59.144531 30.472656 L 58.65625 30.902344 C 58.617188 30.9375 58.617188 31.007812 58.660156 31.054688 L 60.941406 33.636719 C 60.96875 33.664062 61 33.679688 61.035156 33.679688 C 61.054688 33.679688 61.078125 33.671875 61.09375 33.65625 C 61.113281 33.644531 61.132812 33.636719 61.15625 33.636719 C 61.191406 33.636719 61.222656 33.648438 61.25 33.679688 L 62.792969 35.425781 " fill-opacity="1" fill-rule="nonzero"/><path fill="#ffffff" d="M 73.429688 29.964844 C 73.175781 30.148438 72.914062 30.332031 72.644531 30.523438 C 71.070312 31.644531 69.371094 32.847656 68.152344 34.148438 C 68.335938 34.375 68.515625 34.660156 68.667969 35.015625 C 69.894531 33.589844 71.816406 32.265625 73.792969 30.957031 L 74.292969 31.648438 C 74.121094 31.769531 73.945312 31.894531 73.769531 32.019531 L 73.734375 32.042969 C 72.015625 33.261719 69.996094 34.695312 68.972656 36.0625 C 68.996094 36.195312 69.015625 36.328125 69.035156 36.472656 C 69.964844 35.070312 72.183594 33.496094 73.898438 32.277344 C 74.171875 32.085938 74.4375 31.898438 74.695312 31.710938 L 73.429688 29.964844 " fill-opacity="1" fill-rule="nonzero"/><path fill="#ffffff" d="M 62.699219 1.382812 L 62.699219 4.84375 L 67.6875 4.84375 L 67.6875 4.554688 L 62.949219 4.328125 L 67.6875 4.101562 L 67.6875 2.371094 L 62.949219 2.144531 L 67.6875 1.921875 L 67.6875 1.640625 L 68.65625 1.640625 L 68.65625 4.84375 L 68.914062 4.84375 L 68.914062 1.382812 L 62.699219 1.382812 " fill-opacity="1" fill-rule="nonzero"/><path fill="#ffffff" d="M 59.929688 62.175781 C 60.527344 62.234375 61.132812 62.265625 61.738281 62.292969 C 62.945312 62.335938 64.15625 62.351562 65.371094 62.351562 C 66.582031 62.359375 67.792969 62.359375 69.007812 62.34375 C 69.613281 62.332031 70.21875 62.316406 70.820312 62.285156 C 71.429688 62.261719 72.03125 62.203125 72.632812 62.125 C 71.464844 62.472656 70.238281 62.617188 69.023438 62.707031 C 67.804688 62.796875 66.585938 62.816406 65.367188 62.816406 C 64.148438 62.808594 62.929688 62.769531 61.710938 62.652344 C 61.105469 62.597656 60.496094 62.515625 59.894531 62.398438 C 59.296875 62.269531 58.691406 62.128906 58.140625 61.867188 C 58.726562 62.03125 59.324219 62.121094 59.929688 62.175781 Z M 65.59375 63.183594 C 65.613281 63.183594 65.628906 63.183594 65.648438 63.183594 C 65.703125 63.183594 65.753906 63.183594 65.808594 63.183594 C 74.222656 63.183594 75.429688 62.023438 75.429688 59.789062 C 75.429688 51.511719 68.367188 49.601562 68.195312 40.597656 L 67.933594 40.597656 C 68.023438 45.242188 69.90625 48.03125 71.734375 50.722656 C 73.5 53.328125 75.171875 55.789062 75.171875 59.789062 C 75.171875 60.746094 74.984375 61.554688 73.585938 62.113281 C 74.253906 61.589844 74.371094 60.835938 74.390625 59.789062 C 74.421875 58.550781 74.285156 57.457031 74.039062 56.457031 C 71.425781 59.117188 67.996094 60.484375 63.757812 60.535156 C 60.875 60.570312 58.691406 60.761719 57.042969 61.03125 C 56.875 60.632812 56.773438 60.023438 56.777344 59.265625 C 58.632812 58.980469 61.140625 58.8125 63.734375 58.78125 C 67.84375 58.734375 71.019531 57.339844 73.394531 54.546875 C 73.125 53.917969 72.816406 53.324219 72.480469 52.75 C 67.914062 52.945312 63.339844 52.855469 58.792969 52.484375 C 63.261719 52.679688 67.734375 52.597656 72.183594 52.246094 C 70.332031 49.222656 67.933594 46.5625 67.484375 41.855469 L 63.667969 41.605469 L 67.445312 41.363281 C 67.429688 41.113281 67.421875 40.859375 67.414062 40.597656 L 63.417969 40.597656 C 63.246094 49.601562 56.183594 51.511719 56.183594 59.789062 C 56.183594 62.007812 57.375 63.164062 65.59375 63.183594 " fill-opacity="1" fill-rule="nonzero"/><path fill="#ffffff" d="M 63.179688 36.992188 L 67.414062 36.992188 C 67.410156 36.902344 67.40625 36.816406 67.398438 36.730469 L 63.503906 36.496094 L 67.34375 36.265625 C 67.195312 35.296875 66.875 34.578125 66.644531 34.167969 L 66.75 34.195312 C 66.804688 34.207031 68.039062 34.550781 68.171875 36.992188 L 68.433594 36.992188 C 68.328125 35.054688 67.542969 34.328125 67.105469 34.074219 L 64.507812 34.074219 C 64.070312 34.328125 63.28125 35.054688 63.179688 36.992188 " fill-opacity="1" fill-rule="nonzero"/><path fill="#ffffff" d="M 63.367188 39.957031 L 67.59375 39.957031 C 67.683594 39.640625 67.882812 39.335938 68.042969 39.132812 L 62.871094 38.890625 L 68.210938 38.644531 C 68.15625 38.359375 68.054688 37.921875 67.988281 37.632812 L 62.847656 37.632812 C 62.652344 37.828125 62.441406 38.195312 62.441406 38.890625 C 62.441406 38.890625 63.15625 39.386719 63.367188 39.957031 " fill-opacity="1" fill-rule="nonzero"/><path fill="#ffffff" d="M 68.46875 13.042969 C 69.097656 12.882812 69.695312 12.664062 70.140625 12.363281 L 72.964844 12.363281 C 72.089844 12.679688 70.632812 13.042969 68.527344 13.042969 Z M 64.800781 13.296875 L 66.808594 13.296875 C 66.808594 13.296875 66.925781 13.296875 67.117188 13.296875 C 67.449219 13.296875 67.949219 13.296875 68.527344 13.296875 C 72.410156 13.296875 74.125 12.105469 74.125 12.105469 L 57.488281 12.105469 C 57.488281 12.105469 59.203125 13.296875 63.085938 13.296875 C 63.671875 13.296875 64.183594 13.296875 64.492188 13.296875 C 64.6875 13.296875 64.800781 13.296875 64.800781 13.296875 " fill-opacity="1" fill-rule="nonzero"/><path fill="#ffffff" d="M 64.800781 10.945312 L 67.117188 10.945312 C 67.117188 10.945312 68.105469 10.945312 68.105469 10.945312 L 68.105469 10.269531 C 68.105469 10.269531 67.359375 9.816406 67.359375 8.65625 C 67.359375 8.136719 67.5 7.753906 67.652344 7.488281 L 67.359375 7.488281 C 67.21875 7.777344 67.101562 8.160156 67.101562 8.65625 C 67.101562 9.660156 67.605469 10.199219 67.847656 10.398438 L 67.847656 10.6875 L 67.117188 10.6875 L 67.117188 10.523438 L 63.914062 10.285156 L 67.007812 10.054688 C 66.835938 9.890625 66.535156 9.503906 66.535156 8.898438 C 66.535156 8.378906 66.625 7.828125 66.691406 7.488281 L 63.960938 7.488281 C 64.113281 7.753906 64.253906 8.136719 64.253906 8.65625 C 64.253906 9.816406 63.507812 10.269531 63.507812 10.269531 L 63.507812 10.945312 L 64.800781 10.945312 " fill-opacity="1" fill-rule="nonzero"/><path fill="#ffffff" d="M 64.796875 27.070312 L 66.03125 27.070312 C 66.046875 24.648438 66.242188 22.648438 66.414062 21.351562 L 64.609375 21.132812 L 66.476562 20.902344 C 66.507812 20.683594 66.535156 20.496094 66.5625 20.335938 L 67.265625 20.335938 C 67.03125 21.0625 66.59375 22.957031 66.554688 27.070312 L 66.8125 27.070312 C 66.871094 21.539062 67.640625 20.078125 67.640625 20.078125 L 67.117188 20.078125 C 67.117188 20.078125 64.492188 20.078125 64.492188 20.078125 C 64.492188 20.078125 63.972656 20.078125 63.972656 20.078125 C 63.972656 20.078125 64.742188 21.539062 64.796875 27.070312 " fill-opacity="1" fill-rule="nonzero"/><path fill="#ffffff" d="M 66.03125 14.726562 L 64.886719 14.535156 L 66.03125 14.34375 L 66.03125 13.933594 L 64.800781 13.933594 L 64.800781 19.441406 L 66.03125 19.441406 L 66.03125 14.726562 " fill-opacity="1" fill-rule="nonzero"/><path fill="#ffffff" d="M 67.019531 6.851562 C 67.035156 6.6875 67.0625 6.53125 67.097656 6.386719 L 63.636719 6.164062 L 67.230469 5.933594 C 67.296875 5.753906 67.363281 5.601562 67.425781 5.476562 L 62.980469 5.476562 C 63.210938 5.773438 63.507812 6.261719 63.554688 6.851562 L 67.019531 6.851562 " fill-opacity="1" fill-rule="nonzero"/><path fill="#ffffff" d="M 64.800781 30.351562 C 64.800781 31.445312 64.800781 32.730469 64.800781 33.429688 L 66.03125 33.429688 C 66.03125 32.714844 66.03125 30.671875 66.03125 29.695312 C 66.03125 29.460938 66.066406 29.226562 66.125 29.003906 L 64.707031 28.8125 L 66.25 28.605469 C 66.34375 28.363281 66.453125 28.148438 66.554688 27.964844 L 67.234375 27.964844 C 66.945312 28.4375 66.550781 29.273438 66.550781 30.351562 L 66.550781 33.429688 L 66.808594 33.429688 C 66.808594 32.730469 66.808594 31.445312 66.808594 30.351562 C 66.808594 28.753906 67.734375 27.707031 67.734375 27.707031 L 67.117188 27.707031 C 67.117188 27.707031 66.808594 27.707031 66.808594 27.707031 L 64.492188 27.707031 C 64.492188 27.707031 63.878906 27.707031 63.878906 27.707031 C 63.878906 27.707031 64.800781 28.753906 64.800781 30.351562 " fill-opacity="1" fill-rule="nonzero"/><path fill="#3f3f3f" d="M 70.140625 12.363281 C 69.695312 12.664062 69.097656 12.882812 68.46875 13.042969 L 68.527344 13.042969 C 70.632812 13.042969 72.089844 12.679688 72.964844 12.363281 L 70.140625 12.363281 " fill-opacity="1" fill-rule="nonzero"/><path fill="#ffffff" d="M 68.246094 39.957031 C 68.457031 39.386719 69.171875 38.890625 69.171875 38.890625 C 69.171875 38.195312 68.960938 37.828125 68.765625 37.632812 L 68.234375 37.632812 L 68.378906 37.675781 C 68.398438 37.679688 68.871094 37.832031 68.910156 38.761719 C 68.664062 38.949219 68.128906 39.414062 67.972656 39.957031 L 68.246094 39.957031 " fill-opacity="1" fill-rule="nonzero"/><path fill="#ffffff" d="M 66.808594 13.933594 L 66.550781 13.933594 L 66.550781 19.441406 L 66.808594 19.441406 L 66.808594 13.933594 " fill-opacity="1" fill-rule="nonzero"/><path fill="#ffffff" d="M 68.058594 6.851562 C 68.105469 6.261719 68.402344 5.773438 68.632812 5.476562 L 68.3125 5.476562 C 68.082031 5.808594 67.839844 6.285156 67.800781 6.851562 L 68.058594 6.851562 " fill-opacity="1" fill-rule="nonzero"/><path fill="#3f3f3f" d="M 61.710938 62.652344 C 62.929688 62.769531 64.148438 62.808594 65.367188 62.816406 C 66.585938 62.816406 67.804688 62.796875 69.023438 62.707031 C 70.238281 62.617188 71.464844 62.472656 72.632812 62.125 C 72.03125 62.203125 71.429688 62.261719 70.820312 62.285156 C 70.21875 62.316406 69.613281 62.332031 69.007812 62.34375 C 67.792969 62.359375 66.582031 62.359375 65.371094 62.351562 C 64.15625 62.351562 62.945312 62.335938 61.738281 62.292969 C 61.132812 62.265625 60.527344 62.234375 59.929688 62.175781 C 59.324219 62.121094 58.726562 62.03125 58.140625 61.867188 C 58.691406 62.128906 59.296875 62.269531 59.894531 62.398438 C 60.496094 62.515625 61.105469 62.597656 61.710938 62.652344 " fill-opacity="1" fill-rule="nonzero"/><g fill="#3f3f3f" fill-opacity="1"><g transform="translate(3.971919, 63.122272)"><g><path d="M 9.59375 -35.589844 C 13.296875 -35.589844 16.175781 -34.816406 18.230469 -33.265625 C 19.410156 -32.378906 20.296875 -31.261719 20.886719 -29.925781 C 21.4375 -28.675781 21.714844 -27.265625 21.714844 -25.695312 L 21.714844 -19.460938 L 8.21875 -19.460938 L 8.21875 -25.296875 C 8.21875 -25.402344 8.21875 -25.464844 8.210938 -25.488281 C 8.246094 -25.355469 8.316406 -25.214844 8.433594 -25.0625 C 8.617188 -24.8125 8.851562 -24.628906 9.136719 -24.5 C 9.332031 -24.414062 9.515625 -24.371094 9.679688 -24.371094 C 9.910156 -24.371094 10.144531 -24.425781 10.386719 -24.542969 C 10.703125 -24.691406 10.957031 -24.902344 11.152344 -25.179688 C 11.265625 -25.339844 11.335938 -25.492188 11.371094 -25.632812 C 11.367188 -25.617188 11.363281 -25.5625 11.363281 -25.472656 L 11.363281 -23.867188 C 11.363281 -23.941406 11.351562 -24.007812 11.328125 -24.078125 C 11.320312 -24.097656 11.3125 -24.117188 11.304688 -24.128906 C 11.304688 -24.128906 11.308594 -24.121094 11.316406 -24.109375 C 11.546875 -23.828125 11.773438 -23.605469 12 -23.449219 C 12.421875 -23.160156 13.128906 -22.71875 14.113281 -22.125 C 15.523438 -21.273438 16.738281 -20.429688 17.757812 -19.59375 C 18.960938 -18.609375 19.988281 -17.367188 20.84375 -15.859375 C 21.78125 -14.214844 22.25 -12.320312 22.25 -10.171875 L 22.25 -7.316406 C 22.25 -5.410156 21.960938 -3.75 21.378906 -2.335938 C 20.71875 -0.726562 19.703125 0.542969 18.339844 1.46875 C 16.109375 2.980469 13.195312 3.738281 9.59375 3.738281 C 5.488281 3.738281 2.46875 2.789062 0.53125 0.898438 C -1.421875 -1.011719 -2.398438 -3.765625 -2.398438 -7.359375 L -2.398438 -14.667969 L 11.410156 -14.667969 L 11.410156 -6.335938 C 11.410156 -6.28125 11.410156 -6.234375 11.414062 -6.199219 C 11.414062 -6.191406 11.417969 -6.1875 11.417969 -6.1875 C 11.414062 -6.191406 11.414062 -6.203125 11.410156 -6.210938 C 11.375 -6.363281 11.296875 -6.523438 11.175781 -6.691406 C 10.976562 -6.964844 10.722656 -7.175781 10.40625 -7.320312 C 10.171875 -7.429688 9.945312 -7.484375 9.726562 -7.484375 C 9.46875 -7.484375 9.214844 -7.414062 8.953125 -7.277344 C 8.660156 -7.121094 8.433594 -6.914062 8.269531 -6.652344 C 8.207031 -6.558594 8.164062 -6.472656 8.136719 -6.390625 L 8.132812 -6.390625 C 8.160156 -6.542969 8.175781 -6.761719 8.175781 -7.050781 L 8.175781 -8.746094 C 8.175781 -8.910156 8.140625 -9.042969 8.070312 -9.144531 C 7.832031 -9.488281 7.589844 -9.753906 7.339844 -9.941406 C 6.882812 -10.277344 6.214844 -10.722656 5.335938 -11.273438 C 3.960938 -12.101562 2.800781 -12.902344 1.84375 -13.675781 C 0.695312 -14.601562 -0.289062 -15.785156 -1.105469 -17.222656 C -1.996094 -18.792969 -2.441406 -20.605469 -2.441406 -22.664062 L -2.441406 -24.804688 C -2.441406 -28.316406 -1.339844 -31.019531 0.867188 -32.917969 C 2.933594 -34.699219 5.84375 -35.589844 9.59375 -35.589844 Z M 9.59375 -29.457031 C 7.363281 -29.457031 5.785156 -29.058594 4.867188 -28.269531 C 4.082031 -27.59375 3.691406 -26.441406 3.691406 -24.804688 L 3.691406 -22.664062 C 3.691406 -21.6875 3.871094 -20.882812 4.230469 -20.25 C 4.660156 -19.488281 5.152344 -18.886719 5.695312 -18.449219 C 6.4375 -17.851562 7.398438 -17.191406 8.585938 -16.476562 C 9.605469 -15.835938 10.410156 -15.300781 10.996094 -14.863281 C 11.789062 -14.277344 12.496094 -13.53125 13.121094 -12.628906 C 13.914062 -11.480469 14.308594 -10.183594 14.308594 -8.746094 L 14.308594 -7.050781 C 14.308594 -5.507812 14.027344 -4.285156 13.457031 -3.382812 C 13.042969 -2.722656 12.496094 -2.210938 11.824219 -1.855469 C 11.1875 -1.519531 10.488281 -1.347656 9.726562 -1.347656 C 9.046875 -1.347656 8.414062 -1.484375 7.832031 -1.753906 C 7.171875 -2.058594 6.628906 -2.507812 6.199219 -3.101562 C 5.582031 -3.957031 5.277344 -5.035156 5.277344 -6.335938 L 5.277344 -11.597656 L 8.34375 -11.597656 L 8.34375 -8.53125 L 0.667969 -8.53125 L 0.667969 -11.597656 L 3.738281 -11.597656 L 3.738281 -7.359375 C 3.738281 -5.484375 4.097656 -4.195312 4.820312 -3.488281 C 5.117188 -3.195312 5.59375 -2.957031 6.246094 -2.773438 C 7.125 -2.523438 8.242188 -2.398438 9.59375 -2.398438 C 11.9375 -2.398438 13.707031 -2.800781 14.898438 -3.609375 C 15.710938 -4.160156 16.117188 -5.394531 16.117188 -7.316406 L 16.117188 -10.171875 C 16.117188 -11.238281 15.914062 -12.121094 15.515625 -12.824219 C 15.03125 -13.671875 14.484375 -14.34375 13.871094 -14.847656 C 13.078125 -15.5 12.105469 -16.171875 10.957031 -16.867188 C 9.863281 -17.523438 9.050781 -18.03125 8.523438 -18.394531 C 7.796875 -18.894531 7.132812 -19.523438 6.527344 -20.277344 C 5.664062 -21.359375 5.230469 -22.554688 5.230469 -23.867188 L 5.230469 -25.472656 C 5.230469 -26.777344 5.53125 -27.855469 6.136719 -28.714844 C 6.5625 -29.316406 7.105469 -29.773438 7.765625 -30.085938 C 8.351562 -30.363281 8.992188 -30.503906 9.679688 -30.503906 C 10.382812 -30.503906 11.03125 -30.371094 11.628906 -30.105469 C 12.316406 -29.800781 12.886719 -29.347656 13.339844 -28.742188 C 14.015625 -27.839844 14.355469 -26.691406 14.355469 -25.296875 L 14.355469 -22.53125 L 11.289062 -22.53125 L 11.289062 -25.597656 L 18.648438 -25.597656 L 18.648438 -22.53125 L 15.582031 -22.53125 L 15.582031 -25.695312 C 15.582031 -26.402344 15.480469 -26.984375 15.277344 -27.441406 C 15.113281 -27.808594 14.867188 -28.117188 14.539062 -28.367188 C 13.574219 -29.09375 11.925781 -29.457031 9.59375 -29.457031 Z M 9.59375 -29.457031 "/></g></g></g><g fill="#3f3f3f" fill-opacity="1"><g transform="translate(23.78018, 63.122272)"><g><path d="M 9.191406 -23.367188 L 12.3125 -23.367188 L 12.3125 -20.300781 L 9.246094 -20.300781 L 9.246094 -34.921875 L 23.589844 -34.921875 L 23.589844 3.066406 L 9.246094 3.066406 L 9.246094 -13.339844 L 12.3125 -13.339844 L 12.3125 -10.273438 L 9.191406 -10.273438 L 9.191406 -13.339844 L 12.257812 -13.339844 L 12.257812 3.066406 L -2.085938 3.066406 L -2.085938 -34.921875 L 12.257812 -34.921875 L 12.257812 -20.300781 L 9.191406 -20.300781 Z M 6.125 -17.230469 L 6.125 -31.855469 L 9.191406 -31.855469 L 9.191406 -28.785156 L 0.980469 -28.785156 L 0.980469 -31.855469 L 4.046875 -31.855469 L 4.046875 0 L 0.980469 0 L 0.980469 -3.066406 L 9.191406 -3.066406 L 9.191406 0 L 6.125 0 L 6.125 -16.40625 L 15.378906 -16.40625 L 15.378906 0 L 12.3125 0 L 12.3125 -3.066406 L 20.523438 -3.066406 L 20.523438 0 L 17.453125 0 L 17.453125 -31.855469 L 20.523438 -31.855469 L 20.523438 -28.785156 L 12.3125 -28.785156 L 12.3125 -31.855469 L 15.378906 -31.855469 L 15.378906 -17.230469 Z M 6.125 -17.230469 "/></g></g></g><g fill="#ffffff" fill-opacity="1"><g transform="translate(3.971919, 63.122272)"><g><path d="M 9.59375 -32.515625 C 15.625 -32.515625 18.640625 -30.238281 18.640625 -25.6875 L 18.640625 -22.53125 L 11.28125 -22.53125 L 11.28125 -25.296875 C 11.28125 -26.722656 10.75 -27.4375 9.6875 -27.4375 C 8.757812 -27.4375 8.296875 -26.78125 8.296875 -25.46875 L 8.296875 -23.859375 C 8.296875 -23.265625 8.503906 -22.707031 8.921875 -22.1875 C 9.335938 -21.664062 9.78125 -21.242188 10.25 -20.921875 C 10.726562 -20.597656 11.488281 -20.125 12.53125 -19.5 C 13.8125 -18.71875 14.90625 -17.957031 15.8125 -17.21875 C 16.71875 -16.476562 17.503906 -15.519531 18.171875 -14.34375 C 18.847656 -13.164062 19.1875 -11.773438 19.1875 -10.171875 L 19.1875 -7.3125 C 19.1875 -4.3125 18.328125 -2.226562 16.609375 -1.0625 C 14.898438 0.09375 12.5625 0.671875 9.59375 0.671875 C 6.320312 0.671875 4.015625 0.0195312 2.671875 -1.28125 C 1.335938 -2.59375 0.671875 -4.617188 0.671875 -7.359375 L 0.671875 -11.59375 L 8.34375 -11.59375 L 8.34375 -6.328125 C 8.34375 -5.054688 8.800781 -4.421875 9.71875 -4.421875 C 10.226562 -4.421875 10.609375 -4.617188 10.859375 -5.015625 C 11.109375 -5.421875 11.234375 -6.097656 11.234375 -7.046875 L 11.234375 -8.75 C 11.234375 -9.550781 11.019531 -10.265625 10.59375 -10.890625 C 10.164062 -11.515625 9.691406 -12.019531 9.171875 -12.40625 C 8.648438 -12.789062 7.910156 -13.28125 6.953125 -13.875 C 5.679688 -14.644531 4.617188 -15.367188 3.765625 -16.046875 C 2.921875 -16.734375 2.1875 -17.628906 1.5625 -18.734375 C 0.9375 -19.835938 0.625 -21.144531 0.625 -22.65625 L 0.625 -24.796875 C 0.625 -29.941406 3.613281 -32.515625 9.59375 -32.515625 Z M 9.59375 -32.515625 "/></g></g></g><g fill="#ffffff" fill-opacity="1"><g transform="translate(23.78018, 63.122272)"><g><path d="M 9.1875 -20.296875 L 12.3125 -20.296875 L 12.3125 -31.84375 L 20.515625 -31.84375 L 20.515625 0 L 12.3125 0 L 12.3125 -13.34375 L 9.1875 -13.34375 L 9.1875 0 L 0.984375 0 L 0.984375 -31.84375 L 9.1875 -31.84375 Z M 9.1875 -20.296875 "/></g></g></g><g fill="#3f3f3f" fill-opacity="1"><g transform="translate(85.419492, 63.122272)"><g><path d="M 9.59375 -35.589844 C 13.296875 -35.589844 16.175781 -34.816406 18.230469 -33.265625 C 19.410156 -32.378906 20.296875 -31.261719 20.886719 -29.925781 C 21.4375 -28.675781 21.714844 -27.265625 21.714844 -25.695312 L 21.714844 -19.460938 L 8.21875 -19.460938 L 8.21875 -25.296875 C 8.21875 -25.402344 8.21875 -25.464844 8.210938 -25.488281 C 8.246094 -25.355469 8.316406 -25.214844 8.433594 -25.0625 C 8.617188 -24.8125 8.851562 -24.628906 9.136719 -24.5 C 9.332031 -24.414062 9.515625 -24.371094 9.679688 -24.371094 C 9.910156 -24.371094 10.144531 -24.425781 10.386719 -24.542969 C 10.703125 -24.691406 10.957031 -24.902344 11.152344 -25.179688 C 11.265625 -25.339844 11.335938 -25.492188 11.371094 -25.632812 C 11.367188 -25.617188 11.363281 -25.5625 11.363281 -25.472656 L 11.363281 -23.867188 C 11.363281 -23.941406 11.351562 -24.007812 11.328125 -24.078125 C 11.320312 -24.097656 11.3125 -24.117188 11.304688 -24.128906 C 11.304688 -24.128906 11.308594 -24.121094 11.316406 -24.109375 C 11.546875 -23.828125 11.773438 -23.605469 12 -23.449219 C 12.421875 -23.160156 13.128906 -22.71875 14.113281 -22.125 C 15.523438 -21.273438 16.738281 -20.429688 17.757812 -19.59375 C 18.960938 -18.609375 19.988281 -17.367188 20.84375 -15.859375 C 21.78125 -14.214844 22.25 -12.320312 22.25 -10.171875 L 22.25 -7.316406 C 22.25 -5.410156 21.960938 -3.75 21.378906 -2.335938 C 20.71875 -0.726562 19.703125 0.542969 18.339844 1.46875 C 16.109375 2.980469 13.195312 3.738281 9.59375 3.738281 C 5.488281 3.738281 2.46875 2.789062 0.53125 0.898438 C -1.421875 -1.011719 -2.398438 -3.765625 -2.398438 -7.359375 L -2.398438 -14.667969 L 11.410156 -14.667969 L 11.410156 -6.335938 C 11.410156 -6.28125 11.410156 -6.234375 11.414062 -6.199219 C 11.414062 -6.191406 11.417969 -6.1875 11.417969 -6.1875 C 11.414062 -6.191406 11.414062 -6.203125 11.410156 -6.210938 C 11.375 -6.363281 11.296875 -6.523438 11.175781 -6.691406 C 10.976562 -6.964844 10.722656 -7.175781 10.40625 -7.320312 C 10.171875 -7.429688 9.945312 -7.484375 9.726562 -7.484375 C 9.46875 -7.484375 9.214844 -7.414062 8.953125 -7.277344 C 8.660156 -7.121094 8.433594 -6.914062 8.269531 -6.652344 C 8.207031 -6.558594 8.164062 -6.472656 8.136719 -6.390625 L 8.132812 -6.390625 C 8.160156 -6.542969 8.175781 -6.761719 8.175781 -7.050781 L 8.175781 -8.746094 C 8.175781 -8.910156 8.140625 -9.042969 8.070312 -9.144531 C 7.832031 -9.488281 7.589844 -9.753906 7.339844 -9.941406 C 6.882812 -10.277344 6.214844 -10.722656 5.335938 -11.273438 C 3.960938 -12.101562 2.800781 -12.902344 1.84375 -13.675781 C 0.695312 -14.601562 -0.289062 -15.785156 -1.105469 -17.222656 C -1.996094 -18.792969 -2.441406 -20.605469 -2.441406 -22.664062 L -2.441406 -24.804688 C -2.441406 -28.316406 -1.339844 -31.019531 0.867188 -32.917969 C 2.933594 -34.699219 5.84375 -35.589844 9.59375 -35.589844 Z M 9.59375 -29.457031 C 7.363281 -29.457031 5.785156 -29.058594 4.867188 -28.269531 C 4.082031 -27.59375 3.691406 -26.441406 3.691406 -24.804688 L 3.691406 -22.664062 C 3.691406 -21.6875 3.871094 -20.882812 4.230469 -20.25 C 4.660156 -19.488281 5.152344 -18.886719 5.695312 -18.449219 C 6.4375 -17.851562 7.398438 -17.191406 8.585938 -16.476562 C 9.605469 -15.835938 10.410156 -15.300781 10.996094 -14.863281 C 11.789062 -14.277344 12.496094 -13.53125 13.121094 -12.628906 C 13.914062 -11.480469 14.308594 -10.183594 14.308594 -8.746094 L 14.308594 -7.050781 C 14.308594 -5.507812 14.027344 -4.285156 13.457031 -3.382812 C 13.042969 -2.722656 12.496094 -2.210938 11.824219 -1.855469 C 11.1875 -1.519531 10.488281 -1.347656 9.726562 -1.347656 C 9.046875 -1.347656 8.414062 -1.484375 7.832031 -1.753906 C 7.171875 -2.058594 6.628906 -2.507812 6.199219 -3.101562 C 5.582031 -3.957031 5.277344 -5.035156 5.277344 -6.335938 L 5.277344 -11.597656 L 8.34375 -11.597656 L 8.34375 -8.53125 L 0.667969 -8.53125 L 0.667969 -11.597656 L 3.738281 -11.597656 L 3.738281 -7.359375 C 3.738281 -5.484375 4.097656 -4.195312 4.820312 -3.488281 C 5.117188 -3.195312 5.59375 -2.957031 6.246094 -2.773438 C 7.125 -2.523438 8.242188 -2.398438 9.59375 -2.398438 C 11.9375 -2.398438 13.707031 -2.800781 14.898438 -3.609375 C 15.710938 -4.160156 16.117188 -5.394531 16.117188 -7.316406 L 16.117188 -10.171875 C 16.117188 -11.238281 15.914062 -12.121094 15.515625 -12.824219 C 15.03125 -13.671875 14.484375 -14.34375 13.871094 -14.847656 C 13.078125 -15.5 12.105469 -16.171875 10.957031 -16.867188 C 9.863281 -17.523438 9.050781 -18.03125 8.523438 -18.394531 C 7.796875 -18.894531 7.132812 -19.523438 6.527344 -20.277344 C 5.664062 -21.359375 5.230469 -22.554688 5.230469 -23.867188 L 5.230469 -25.472656 C 5.230469 -26.777344 5.53125 -27.855469 6.136719 -28.714844 C 6.5625 -29.316406 7.105469 -29.773438 7.765625 -30.085938 C 8.351562 -30.363281 8.992188 -30.503906 9.679688 -30.503906 C 10.382812 -30.503906 11.03125 -30.371094 11.628906 -30.105469 C 12.316406 -29.800781 12.886719 -29.347656 13.339844 -28.742188 C 14.015625 -27.839844 14.355469 -26.691406 14.355469 -25.296875 L 14.355469 -22.53125 L 11.289062 -22.53125 L 11.289062 -25.597656 L 18.648438 -25.597656 L 18.648438 -22.53125 L 15.582031 -22.53125 L 15.582031 -25.695312 C 15.582031 -26.402344 15.480469 -26.984375 15.277344 -27.441406 C 15.113281 -27.808594 14.867188 -28.117188 14.539062 -28.367188 C 13.574219 -29.09375 11.925781 -29.457031 9.59375 -29.457031 Z M 9.59375 -29.457031 "/></g></g></g><g fill="#3f3f3f" fill-opacity="1"><g transform="translate(105.227753, 63.122272)"><g><path d="M 9.191406 -23.367188 L 12.3125 -23.367188 L 12.3125 -20.300781 L 9.246094 -20.300781 L 9.246094 -34.921875 L 23.589844 -34.921875 L 23.589844 3.066406 L 9.246094 3.066406 L 9.246094 -13.339844 L 12.3125 -13.339844 L 12.3125 -10.273438 L 9.191406 -10.273438 L 9.191406 -13.339844 L 12.257812 -13.339844 L 12.257812 3.066406 L -2.085938 3.066406 L -2.085938 -34.921875 L 12.257812 -34.921875 L 12.257812 -20.300781 L 9.191406 -20.300781 Z M 6.125 -17.230469 L 6.125 -31.855469 L 9.191406 -31.855469 L 9.191406 -28.785156 L 0.980469 -28.785156 L 0.980469 -31.855469 L 4.046875 -31.855469 L 4.046875 0 L 0.980469 0 L 0.980469 -3.066406 L 9.191406 -3.066406 L 9.191406 0 L 6.125 0 L 6.125 -16.40625 L 15.378906 -16.40625 L 15.378906 0 L 12.3125 0 L 12.3125 -3.066406 L 20.523438 -3.066406 L 20.523438 0 L 17.453125 0 L 17.453125 -31.855469 L 20.523438 -31.855469 L 20.523438 -28.785156 L 12.3125 -28.785156 L 12.3125 -31.855469 L 15.378906 -31.855469 L 15.378906 -17.230469 Z M 6.125 -17.230469 "/></g></g></g><g fill="#3f3f3f" fill-opacity="1"><g transform="translate(126.731321, 63.122272)"><g><path d="M 20.433594 3.066406 L 9.367188 3.066406 L 8.761719 -5.402344 L 11.824219 -5.621094 L 11.824219 -2.554688 L 8.832031 -2.554688 L 8.832031 -5.621094 L 11.894531 -5.402344 L 11.289062 3.066406 L -3.253906 3.066406 L 1.535156 -34.921875 L 18.734375 -34.921875 L 23.949219 3.066406 Z M 20.433594 -3.066406 L 20.433594 0 L 17.394531 0.417969 L 13.023438 -31.4375 L 16.0625 -31.855469 L 16.0625 -28.785156 L 4.238281 -28.785156 L 4.238281 -31.855469 L 7.28125 -31.46875 L 3.265625 0.382812 L 0.222656 0 L 0.222656 -3.066406 L 8.433594 -3.066406 L 8.433594 0 L 5.371094 -0.21875 L 5.976562 -8.6875 L 14.679688 -8.6875 L 15.285156 -0.21875 L 12.222656 0 L 12.222656 -3.066406 Z M 8.832031 -14.308594 L 11.6875 -14.308594 L 11.6875 -11.242188 L 8.636719 -10.953125 L 7.207031 -25.941406 L 10.261719 -26.234375 L 10.261719 -23.164062 L 10.171875 -23.164062 L 10.171875 -26.234375 L 13.226562 -25.960938 L 11.886719 -10.96875 L 8.832031 -11.242188 Z M 5.480469 -8.175781 L 7.367188 -29.300781 L 13.050781 -29.300781 L 15.0625 -8.175781 Z M 5.480469 -8.175781 "/></g></g></g><g fill="#ffffff" fill-opacity="1"><g transform="translate(85.419492, 63.122272)"><g><path d="M 9.59375 -32.515625 C 15.625 -32.515625 18.640625 -30.238281 18.640625 -25.6875 L 18.640625 -22.53125 L 11.28125 -22.53125 L 11.28125 -25.296875 C 11.28125 -26.722656 10.75 -27.4375 9.6875 -27.4375 C 8.757812 -27.4375 8.296875 -26.78125 8.296875 -25.46875 L 8.296875 -23.859375 C 8.296875 -23.265625 8.503906 -22.707031 8.921875 -22.1875 C 9.335938 -21.664062 9.78125 -21.242188 10.25 -20.921875 C 10.726562 -20.597656 11.488281 -20.125 12.53125 -19.5 C 13.8125 -18.71875 14.90625 -17.957031 15.8125 -17.21875 C 16.71875 -16.476562 17.503906 -15.519531 18.171875 -14.34375 C 18.847656 -13.164062 19.1875 -11.773438 19.1875 -10.171875 L 19.1875 -7.3125 C 19.1875 -4.3125 18.328125 -2.226562 16.609375 -1.0625 C 14.898438 0.09375 12.5625 0.671875 9.59375 0.671875 C 6.320312 0.671875 4.015625 0.0195312 2.671875 -1.28125 C 1.335938 -2.59375 0.671875 -4.617188 0.671875 -7.359375 L 0.671875 -11.59375 L 8.34375 -11.59375 L 8.34375 -6.328125 C 8.34375 -5.054688 8.800781 -4.421875 9.71875 -4.421875 C 10.226562 -4.421875 10.609375 -4.617188 10.859375 -5.015625 C 11.109375 -5.421875 11.234375 -6.097656 11.234375 -7.046875 L 11.234375 -8.75 C 11.234375 -9.550781 11.019531 -10.265625 10.59375 -10.890625 C 10.164062 -11.515625 9.691406 -12.019531 9.171875 -12.40625 C 8.648438 -12.789062 7.910156 -13.28125 6.953125 -13.875 C 5.679688 -14.644531 4.617188 -15.367188 3.765625 -16.046875 C 2.921875 -16.734375 2.1875 -17.628906 1.5625 -18.734375 C 0.9375 -19.835938 0.625 -21.144531 0.625 -22.65625 L 0.625 -24.796875 C 0.625 -29.941406 3.613281 -32.515625 9.59375 -32.515625 Z M 9.59375 -32.515625 "/></g></g></g><g fill="#ffffff" fill-opacity="1"><g transform="translate(105.227753, 63.122272)"><g><path d="M 9.1875 -20.296875 L 12.3125 -20.296875 L 12.3125 -31.84375 L 20.515625 -31.84375 L 20.515625 0 L 12.3125 0 L 12.3125 -13.34375 L 9.1875 -13.34375 L 9.1875 0 L 0.984375 0 L 0.984375 -31.84375 L 9.1875 -31.84375 Z M 9.1875 -20.296875 "/></g></g></g><g fill="#ffffff" fill-opacity="1"><g transform="translate(126.731321, 63.122272)"><g><path d="M 20.4375 0 L 12.21875 0 L 11.828125 -5.625 L 8.828125 -5.625 L 8.4375 0 L 0.21875 0 L 4.234375 -31.84375 L 16.0625 -31.84375 Z M 8.828125 -11.234375 L 11.6875 -11.234375 L 10.265625 -26.234375 L 10.171875 -26.234375 Z M 8.828125 -11.234375 "/></g></g></g><g clip-path="url(#f05841c876)"><path fill="#860000" d="M 70.523438 13.804688 L 68.175781 14.746094 C 67.425781 15 66.933594 15.460938 66.648438 15.820312 C 66.441406 15.6875 66.1875 15.613281 65.902344 15.613281 L 65.542969 15.613281 C 65.273438 15.613281 65.019531 15.6875 64.796875 15.820312 C 64.511719 15.460938 64.019531 15 63.273438 14.746094 L 60.925781 13.804688 C 60.925781 13.804688 59.804688 14.804688 59.804688 16.988281 C 59.804688 19.183594 60.925781 20.171875 60.925781 20.171875 L 63.273438 19.230469 C 64.019531 18.976562 64.511719 18.511719 64.796875 18.152344 C 65.007812 18.289062 65.261719 18.363281 65.542969 18.363281 L 65.902344 18.363281 C 66.171875 18.363281 66.425781 18.289062 66.648438 18.152344 C 66.933594 18.511719 67.425781 18.976562 68.175781 19.230469 L 70.523438 20.171875 C 70.523438 20.171875 71.640625 19.167969 71.640625 16.988281 C 71.640625 14.789062 70.523438 13.804688 70.523438 13.804688 Z M 70.523438 13.804688 " fill-opacity="1" fill-rule="nonzero"/></g><g fill="#3f3f3f" fill-opacity="1"><g transform="translate(162.17117, 63.122272)"><g><path d="M 10.929688 -35.589844 C 14.914062 -35.589844 17.96875 -34.445312 20.09375 -32.15625 C 22.15625 -29.929688 23.1875 -27.125 23.1875 -23.734375 L 23.1875 -15.984375 L 8.84375 -15.984375 L 8.84375 -25.296875 C 8.84375 -25.382812 8.84375 -25.433594 8.839844 -25.449219 C 8.871094 -25.3125 8.941406 -25.160156 9.046875 -25 C 9.292969 -24.628906 9.613281 -24.367188 10.003906 -24.207031 C 10.179688 -24.136719 10.324219 -24.101562 10.441406 -24.101562 C 10.796875 -24.101562 11.144531 -24.210938 11.484375 -24.425781 C 11.851562 -24.660156 12.117188 -24.964844 12.277344 -25.335938 C 12.265625 -25.304688 12.257812 -25.261719 12.257812 -25.207031 L 12.257812 -6.648438 C 12.257812 -6.589844 12.265625 -6.546875 12.277344 -6.515625 C 12.117188 -6.890625 11.851562 -7.191406 11.484375 -7.429688 C 11.144531 -7.644531 10.796875 -7.75 10.441406 -7.75 C 10.273438 -7.75 10.082031 -7.703125 9.867188 -7.601562 C 9.476562 -7.421875 9.171875 -7.144531 8.949219 -6.765625 C 8.875 -6.640625 8.832031 -6.542969 8.820312 -6.46875 C 8.835938 -6.558594 8.84375 -6.691406 8.84375 -6.871094 L 8.84375 -16.808594 L 23.1875 -16.808594 L 23.1875 -8.296875 C 23.1875 -6.179688 22.738281 -4.21875 21.835938 -2.421875 C 20.875 -0.496094 19.417969 1.019531 17.464844 2.132812 C 15.582031 3.203125 13.34375 3.738281 10.75 3.738281 C 6.777344 3.738281 3.664062 2.710938 1.414062 0.660156 C -0.917969 -1.464844 -2.085938 -4.671875 -2.085938 -8.96875 L -2.085938 -22.886719 C -2.085938 -26.90625 -0.925781 -30.039062 1.394531 -32.277344 C 3.683594 -34.484375 6.863281 -35.589844 10.929688 -35.589844 Z M 10.929688 -29.457031 C 8.515625 -29.457031 6.753906 -28.925781 5.652344 -27.863281 C 4.582031 -26.828125 4.046875 -25.171875 4.046875 -22.886719 L 4.046875 -8.96875 C 4.046875 -6.480469 4.546875 -4.78125 5.546875 -3.875 C 6.625 -2.890625 8.359375 -2.398438 10.75 -2.398438 C 12.261719 -2.398438 13.492188 -2.664062 14.433594 -3.203125 C 15.304688 -3.699219 15.945312 -4.351562 16.351562 -5.164062 C 16.820312 -6.101562 17.054688 -7.144531 17.054688 -8.296875 L 17.054688 -13.742188 L 20.121094 -13.742188 L 20.121094 -10.671875 L 11.910156 -10.671875 L 11.910156 -13.742188 L 14.980469 -13.742188 L 14.980469 -6.871094 C 14.980469 -5.574219 14.734375 -4.507812 14.25 -3.675781 C 13.820312 -2.941406 13.214844 -2.390625 12.4375 -2.035156 C 11.835938 -1.757812 11.171875 -1.617188 10.441406 -1.617188 C 9.605469 -1.617188 8.855469 -1.828125 8.191406 -2.253906 C 7.492188 -2.695312 6.976562 -3.3125 6.640625 -4.101562 C 6.296875 -4.902344 6.125 -5.75 6.125 -6.648438 L 6.125 -25.207031 C 6.125 -26.101562 6.296875 -26.949219 6.640625 -27.753906 C 6.976562 -28.542969 7.492188 -29.15625 8.191406 -29.601562 C 8.855469 -30.023438 9.605469 -30.238281 10.441406 -30.238281 C 11.121094 -30.238281 11.738281 -30.125 12.300781 -29.894531 C 13.082031 -29.582031 13.695312 -29.082031 14.152344 -28.402344 C 14.703125 -27.574219 14.980469 -26.539062 14.980469 -25.296875 L 14.980469 -19.050781 L 11.910156 -19.050781 L 11.910156 -22.117188 L 20.121094 -22.117188 L 20.121094 -19.050781 L 17.054688 -19.050781 L 17.054688 -23.734375 C 17.054688 -25.519531 16.566406 -26.9375 15.597656 -27.984375 C 14.6875 -28.964844 13.132812 -29.457031 10.929688 -29.457031 Z M 10.929688 -29.457031 "/></g></g></g><g fill="#3f3f3f" fill-opacity="1"><g transform="translate(182.827079, 63.122272)"><g><path d="M 9.191406 -23.367188 L 12.3125 -23.367188 L 12.3125 -20.300781 L 9.246094 -20.300781 L 9.246094 -34.921875 L 23.589844 -34.921875 L 23.589844 3.066406 L 9.246094 3.066406 L 9.246094 -13.339844 L 12.3125 -13.339844 L 12.3125 -10.273438 L 9.191406 -10.273438 L 9.191406 -13.339844 L 12.257812 -13.339844 L 12.257812 3.066406 L -2.085938 3.066406 L -2.085938 -34.921875 L 12.257812 -34.921875 L 12.257812 -20.300781 L 9.191406 -20.300781 Z M 6.125 -17.230469 L 6.125 -31.855469 L 9.191406 -31.855469 L 9.191406 -28.785156 L 0.980469 -28.785156 L 0.980469 -31.855469 L 4.046875 -31.855469 L 4.046875 0 L 0.980469 0 L 0.980469 -3.066406 L 9.191406 -3.066406 L 9.191406 0 L 6.125 0 L 6.125 -16.40625 L 15.378906 -16.40625 L 15.378906 0 L 12.3125 0 L 12.3125 -3.066406 L 20.523438 -3.066406 L 20.523438 0 L 17.453125 0 L 17.453125 -31.855469 L 20.523438 -31.855469 L 20.523438 -28.785156 L 12.3125 -28.785156 L 12.3125 -31.855469 L 15.378906 -31.855469 L 15.378906 -17.230469 Z M 6.125 -17.230469 "/></g></g></g><g fill="#3f3f3f" fill-opacity="1"><g transform="translate(204.330647, 63.122272)"><g><path d="M 20.433594 3.066406 L 9.367188 3.066406 L 8.761719 -5.402344 L 11.824219 -5.621094 L 11.824219 -2.554688 L 8.832031 -2.554688 L 8.832031 -5.621094 L 11.894531 -5.402344 L 11.289062 3.066406 L -3.253906 3.066406 L 1.535156 -34.921875 L 18.734375 -34.921875 L 23.949219 3.066406 Z M 20.433594 -3.066406 L 20.433594 0 L 17.394531 0.417969 L 13.023438 -31.4375 L 16.0625 -31.855469 L 16.0625 -28.785156 L 4.238281 -28.785156 L 4.238281 -31.855469 L 7.28125 -31.46875 L 3.265625 0.382812 L 0.222656 0 L 0.222656 -3.066406 L 8.433594 -3.066406 L 8.433594 0 L 5.371094 -0.21875 L 5.976562 -8.6875 L 14.679688 -8.6875 L 15.285156 -0.21875 L 12.222656 0 L 12.222656 -3.066406 Z M 8.832031 -14.308594 L 11.6875 -14.308594 L 11.6875 -11.242188 L 8.636719 -10.953125 L 7.207031 -25.941406 L 10.261719 -26.234375 L 10.261719 -23.164062 L 10.171875 -23.164062 L 10.171875 -26.234375 L 13.226562 -25.960938 L 11.886719 -10.96875 L 8.832031 -11.242188 Z M 5.480469 -8.175781 L 7.367188 -29.300781 L 13.050781 -29.300781 L 15.0625 -8.175781 Z M 5.480469 -8.175781 "/></g></g></g><g fill="#3f3f3f" fill-opacity="1"><g transform="translate(224.986556, 63.122272)"><g><path d="M 12.257812 -7.359375 C 12.257812 -7.101562 12.269531 -6.925781 12.292969 -6.828125 C 12.238281 -7.050781 12.09375 -7.285156 11.859375 -7.535156 C 11.710938 -7.6875 11.535156 -7.808594 11.324219 -7.898438 C 11.132812 -7.976562 10.941406 -8.019531 10.75 -8.019531 C 10.5625 -8.019531 10.371094 -7.976562 10.175781 -7.898438 C 9.96875 -7.808594 9.792969 -7.6875 9.644531 -7.535156 C 9.410156 -7.285156 9.265625 -7.050781 9.210938 -6.828125 C 9.234375 -6.925781 9.246094 -7.101562 9.246094 -7.359375 L 9.246094 -34.921875 L 23.589844 -34.921875 L 23.589844 -8.519531 C 23.589844 -4.574219 22.453125 -1.53125 20.179688 0.605469 C 17.960938 2.691406 14.820312 3.738281 10.75 3.738281 C 6.683594 3.738281 3.542969 2.691406 1.324219 0.605469 C -0.949219 -1.53125 -2.085938 -4.574219 -2.085938 -8.519531 L -2.085938 -34.921875 L 12.257812 -34.921875 Z M 6.125 -7.359375 L 6.125 -31.855469 L 9.191406 -31.855469 L 9.191406 -28.785156 L 0.980469 -28.785156 L 0.980469 -31.855469 L 4.046875 -31.855469 L 4.046875 -8.519531 C 4.046875 -6.339844 4.539062 -4.789062 5.527344 -3.863281 C 6.5625 -2.886719 8.304688 -2.398438 10.75 -2.398438 C 13.199219 -2.398438 14.941406 -2.886719 15.976562 -3.863281 C 16.960938 -4.789062 17.453125 -6.339844 17.453125 -8.519531 L 17.453125 -31.855469 L 20.523438 -31.855469 L 20.523438 -28.785156 L 12.3125 -28.785156 L 12.3125 -31.855469 L 15.378906 -31.855469 L 15.378906 -7.359375 C 15.378906 -5.5625 14.949219 -4.210938 14.089844 -3.304688 C 13.1875 -2.359375 12.074219 -1.886719 10.75 -1.886719 C 9.429688 -1.886719 8.316406 -2.359375 7.414062 -3.304688 C 6.554688 -4.210938 6.125 -5.5625 6.125 -7.359375 Z M 6.125 -7.359375 "/></g></g></g><g fill="#3f3f3f" fill-opacity="1"><g transform="translate(246.490124, 63.122272)"><g><path d="M 14.8125 -22.363281 L 9.191406 -22.363281 L 9.191406 -25.429688 L 12.257812 -25.429688 L 12.257812 -19.585938 L 9.191406 -19.585938 L 9.191406 -22.652344 L 17.074219 -22.652344 L 17.074219 -10.363281 L 9.191406 -10.363281 L 9.191406 -13.429688 L 12.257812 -13.429688 L 12.257812 3.066406 L -2.085938 3.066406 L -2.085938 -34.921875 L 17.878906 -34.921875 L 17.878906 -22.363281 Z M 14.8125 -28.496094 L 14.8125 -25.429688 L 11.746094 -25.429688 L 11.746094 -31.855469 L 14.8125 -31.855469 L 14.8125 -28.785156 L 0.980469 -28.785156 L 0.980469 -31.855469 L 4.046875 -31.855469 L 4.046875 0 L 0.980469 0 L 0.980469 -3.066406 L 9.191406 -3.066406 L 9.191406 0 L 6.125 0 L 6.125 -16.496094 L 14.007812 -16.496094 L 14.007812 -13.429688 L 10.941406 -13.429688 L 10.941406 -19.585938 L 14.007812 -19.585938 L 14.007812 -16.519531 L 6.125 -16.519531 L 6.125 -28.496094 Z M 14.8125 -28.496094 "/></g></g></g><g fill="#3f3f3f" fill-opacity="1"><g transform="translate(261.346317, 63.122272)"><g><path d="M 14.8125 -22.363281 L 9.191406 -22.363281 L 9.191406 -25.429688 L 12.257812 -25.429688 L 12.257812 -19.585938 L 9.191406 -19.585938 L 9.191406 -22.652344 L 17.074219 -22.652344 L 17.074219 -10.363281 L 9.191406 -10.363281 L 9.191406 -13.429688 L 12.257812 -13.429688 L 12.257812 3.066406 L -2.085938 3.066406 L -2.085938 -34.921875 L 17.878906 -34.921875 L 17.878906 -22.363281 Z M 14.8125 -28.496094 L 14.8125 -25.429688 L 11.746094 -25.429688 L 11.746094 -31.855469 L 14.8125 -31.855469 L 14.8125 -28.785156 L 0.980469 -28.785156 L 0.980469 -31.855469 L 4.046875 -31.855469 L 4.046875 0 L 0.980469 0 L 0.980469 -3.066406 L 9.191406 -3.066406 L 9.191406 0 L 6.125 0 L 6.125 -16.496094 L 14.007812 -16.496094 L 14.007812 -13.429688 L 10.941406 -13.429688 L 10.941406 -19.585938 L 14.007812 -19.585938 L 14.007812 -16.519531 L 6.125 -16.519531 L 6.125 -28.496094 Z M 14.8125 -28.496094 "/></g></g></g><g fill="#3f3f3f" fill-opacity="1"><g transform="translate(276.202511, 63.122272)"><g><path d="M 14.855469 -22.363281 L 9.191406 -22.363281 L 9.191406 -25.429688 L 12.257812 -25.429688 L 12.257812 -19.585938 L 9.191406 -19.585938 L 9.191406 -22.652344 L 17.566406 -22.652344 L 17.566406 -10.363281 L 9.191406 -10.363281 L 9.191406 -13.429688 L 12.257812 -13.429688 L 12.257812 -6.425781 L 9.191406 -6.425781 L 9.191406 -9.492188 L 18.371094 -9.492188 L 18.371094 3.066406 L -2.085938 3.066406 L -2.085938 -34.921875 L 17.921875 -34.921875 L 17.921875 -22.363281 Z M 14.855469 -28.496094 L 14.855469 -25.429688 L 11.789062 -25.429688 L 11.789062 -31.855469 L 14.855469 -31.855469 L 14.855469 -28.785156 L 0.980469 -28.785156 L 0.980469 -31.855469 L 4.046875 -31.855469 L 4.046875 0 L 0.980469 0 L 0.980469 -3.066406 L 15.300781 -3.066406 L 15.300781 0 L 12.234375 0 L 12.234375 -6.425781 L 15.300781 -6.425781 L 15.300781 -3.355469 L 6.125 -3.355469 L 6.125 -16.496094 L 14.5 -16.496094 L 14.5 -13.429688 L 11.433594 -13.429688 L 11.433594 -19.585938 L 14.5 -19.585938 L 14.5 -16.519531 L 6.125 -16.519531 L 6.125 -28.496094 Z M 14.855469 -28.496094 "/></g></g></g><g fill="#3f3f3f" fill-opacity="1"><g transform="translate(291.906364, 63.122272)"><g><path d="M 12.257812 -7.359375 C 12.257812 -7.101562 12.269531 -6.925781 12.292969 -6.828125 C 12.238281 -7.050781 12.09375 -7.285156 11.859375 -7.535156 C 11.710938 -7.6875 11.535156 -7.808594 11.324219 -7.898438 C 11.132812 -7.976562 10.941406 -8.019531 10.75 -8.019531 C 10.5625 -8.019531 10.371094 -7.976562 10.175781 -7.898438 C 9.96875 -7.808594 9.792969 -7.6875 9.644531 -7.535156 C 9.410156 -7.285156 9.265625 -7.050781 9.210938 -6.828125 C 9.234375 -6.925781 9.246094 -7.101562 9.246094 -7.359375 L 9.246094 -34.921875 L 23.589844 -34.921875 L 23.589844 -8.519531 C 23.589844 -4.574219 22.453125 -1.53125 20.179688 0.605469 C 17.960938 2.691406 14.820312 3.738281 10.75 3.738281 C 6.683594 3.738281 3.542969 2.691406 1.324219 0.605469 C -0.949219 -1.53125 -2.085938 -4.574219 -2.085938 -8.519531 L -2.085938 -34.921875 L 12.257812 -34.921875 Z M 6.125 -7.359375 L 6.125 -31.855469 L 9.191406 -31.855469 L 9.191406 -28.785156 L 0.980469 -28.785156 L 0.980469 -31.855469 L 4.046875 -31.855469 L 4.046875 -8.519531 C 4.046875 -6.339844 4.539062 -4.789062 5.527344 -3.863281 C 6.5625 -2.886719 8.304688 -2.398438 10.75 -2.398438 C 13.199219 -2.398438 14.941406 -2.886719 15.976562 -3.863281 C 16.960938 -4.789062 17.453125 -6.339844 17.453125 -8.519531 L 17.453125 -31.855469 L 20.523438 -31.855469 L 20.523438 -28.785156 L 12.3125 -28.785156 L 12.3125 -31.855469 L 15.378906 -31.855469 L 15.378906 -7.359375 C 15.378906 -5.5625 14.949219 -4.210938 14.089844 -3.304688 C 13.1875 -2.359375 12.074219 -1.886719 10.75 -1.886719 C 9.429688 -1.886719 8.316406 -2.359375 7.414062 -3.304688 C 6.554688 -4.210938 6.125 -5.5625 6.125 -7.359375 Z M 6.125 -7.359375 "/></g></g></g><g fill="#3f3f3f" fill-opacity="1"><g transform="translate(313.409931, 63.122272)"><g><path d="M 22.429688 -25.5625 L 22.429688 -22.351562 C 22.429688 -19.800781 21.757812 -17.796875 20.421875 -16.332031 C 19.070312 -14.855469 17.1875 -14.027344 14.769531 -13.851562 L 14.542969 -16.910156 L 17.609375 -16.910156 L 17.609375 -16.820312 L 14.542969 -16.820312 L 14.75 -19.878906 C 17.3125 -19.707031 19.285156 -18.878906 20.667969 -17.394531 C 22.050781 -15.914062 22.742188 -13.890625 22.742188 -11.332031 L 22.742188 3.066406 L 8.933594 3.066406 L 8.933594 -12.222656 C 8.933594 -12.390625 8.925781 -12.507812 8.90625 -12.574219 C 8.929688 -12.484375 8.992188 -12.378906 9.085938 -12.261719 C 9.238281 -12.078125 9.417969 -11.941406 9.632812 -11.855469 C 9.738281 -11.808594 9.8125 -11.789062 9.859375 -11.789062 C 9.832031 -11.789062 9.8125 -11.789062 9.804688 -11.785156 L 8.921875 -14.722656 L 11.988281 -14.722656 L 11.988281 3.066406 L -2.085938 3.066406 L -2.085938 -34.921875 L 10.574219 -34.921875 C 12.710938 -34.921875 14.503906 -34.753906 15.949219 -34.417969 C 17.835938 -33.980469 19.378906 -33.046875 20.578125 -31.613281 C 21.8125 -30.136719 22.429688 -28.121094 22.429688 -25.5625 Z M 16.296875 -25.5625 C 16.296875 -26.191406 16.238281 -26.710938 16.125 -27.121094 C 16.050781 -27.378906 15.96875 -27.5625 15.871094 -27.679688 C 15.550781 -28.058594 15.117188 -28.3125 14.566406 -28.441406 C 13.574219 -28.671875 12.242188 -28.785156 10.574219 -28.785156 L 0.980469 -28.785156 L 0.980469 -31.855469 L 4.046875 -31.855469 L 4.046875 0 L 0.980469 0 L 0.980469 -3.066406 L 8.921875 -3.066406 L 8.921875 0 L 5.855469 0 L 5.855469 -17.003906 L 8.042969 -17.660156 C 8.625 -17.835938 9.230469 -17.921875 9.859375 -17.921875 C 10.617188 -17.921875 11.320312 -17.792969 11.960938 -17.53125 C 12.710938 -17.222656 13.335938 -16.757812 13.84375 -16.132812 C 14.660156 -15.132812 15.066406 -13.828125 15.066406 -12.222656 L 15.066406 0 L 12 0 L 12 -3.066406 L 19.675781 -3.066406 L 19.675781 0 L 16.605469 0 L 16.605469 -11.332031 C 16.605469 -11.894531 16.550781 -12.359375 16.4375 -12.71875 C 16.367188 -12.9375 16.28125 -13.101562 16.183594 -13.210938 C 16.082031 -13.316406 15.925781 -13.410156 15.714844 -13.492188 C 15.359375 -13.632812 14.902344 -13.722656 14.335938 -13.757812 L 11.476562 -13.953125 L 11.476562 -19.757812 L 14.316406 -19.96875 C 15.113281 -20.027344 15.640625 -20.195312 15.894531 -20.472656 C 15.984375 -20.570312 16.0625 -20.726562 16.128906 -20.941406 C 16.238281 -21.308594 16.296875 -21.777344 16.296875 -22.351562 Z M 9.503906 -22.742188 C 9.605469 -22.742188 9.6875 -22.746094 9.753906 -22.753906 L 9.746094 -22.75 C 9.515625 -22.671875 9.300781 -22.515625 9.101562 -22.277344 C 8.988281 -22.140625 8.933594 -21.988281 8.933594 -21.816406 L 8.933594 -24.625 C 8.933594 -24.445312 8.980469 -24.296875 9.070312 -24.183594 C 9.257812 -23.945312 9.472656 -23.785156 9.707031 -23.703125 C 9.730469 -23.699219 9.746094 -23.691406 9.761719 -23.6875 L 9.753906 -23.691406 C 9.699219 -23.695312 9.632812 -23.699219 9.546875 -23.699219 L 8.921875 -23.699219 L 8.921875 -26.769531 L 11.988281 -26.769531 L 11.988281 -19.675781 L 8.921875 -19.675781 L 8.921875 -22.742188 Z M 9.503906 -16.605469 L 5.855469 -16.605469 L 5.855469 -29.835938 L 9.546875 -29.835938 C 11.453125 -29.835938 12.890625 -29.226562 13.859375 -28.015625 C 14.664062 -27.007812 15.066406 -25.878906 15.066406 -24.625 L 15.066406 -21.816406 C 15.066406 -20.515625 14.65625 -19.363281 13.828125 -18.367188 C 12.859375 -17.195312 11.417969 -16.605469 9.503906 -16.605469 Z M 9.503906 -16.605469 "/></g></g></g><g fill="#3f3f3f" fill-opacity="1"><g transform="translate(334.065841, 63.122272)"><g><path d="M 9.59375 -35.589844 C 13.296875 -35.589844 16.175781 -34.816406 18.230469 -33.265625 C 19.410156 -32.378906 20.296875 -31.261719 20.886719 -29.925781 C 21.4375 -28.675781 21.714844 -27.265625 21.714844 -25.695312 L 21.714844 -19.460938 L 8.21875 -19.460938 L 8.21875 -25.296875 C 8.21875 -25.402344 8.21875 -25.464844 8.210938 -25.488281 C 8.246094 -25.355469 8.316406 -25.214844 8.433594 -25.0625 C 8.617188 -24.8125 8.851562 -24.628906 9.136719 -24.5 C 9.332031 -24.414062 9.515625 -24.371094 9.679688 -24.371094 C 9.910156 -24.371094 10.144531 -24.425781 10.386719 -24.542969 C 10.703125 -24.691406 10.957031 -24.902344 11.152344 -25.179688 C 11.265625 -25.339844 11.335938 -25.492188 11.371094 -25.632812 C 11.367188 -25.617188 11.363281 -25.5625 11.363281 -25.472656 L 11.363281 -23.867188 C 11.363281 -23.941406 11.351562 -24.007812 11.328125 -24.078125 C 11.320312 -24.097656 11.3125 -24.117188 11.304688 -24.128906 C 11.304688 -24.128906 11.308594 -24.121094 11.316406 -24.109375 C 11.546875 -23.828125 11.773438 -23.605469 12 -23.449219 C 12.421875 -23.160156 13.128906 -22.71875 14.113281 -22.125 C 15.523438 -21.273438 16.738281 -20.429688 17.757812 -19.59375 C 18.960938 -18.609375 19.988281 -17.367188 20.84375 -15.859375 C 21.78125 -14.214844 22.25 -12.320312 22.25 -10.171875 L 22.25 -7.316406 C 22.25 -5.410156 21.960938 -3.75 21.378906 -2.335938 C 20.71875 -0.726562 19.703125 0.542969 18.339844 1.46875 C 16.109375 2.980469 13.195312 3.738281 9.59375 3.738281 C 5.488281 3.738281 2.46875 2.789062 0.53125 0.898438 C -1.421875 -1.011719 -2.398438 -3.765625 -2.398438 -7.359375 L -2.398438 -14.667969 L 11.410156 -14.667969 L 11.410156 -6.335938 C 11.410156 -6.28125 11.410156 -6.234375 11.414062 -6.199219 C 11.414062 -6.191406 11.417969 -6.1875 11.417969 -6.1875 C 11.414062 -6.191406 11.414062 -6.203125 11.410156 -6.210938 C 11.375 -6.363281 11.296875 -6.523438 11.175781 -6.691406 C 10.976562 -6.964844 10.722656 -7.175781 10.40625 -7.320312 C 10.171875 -7.429688 9.945312 -7.484375 9.726562 -7.484375 C 9.46875 -7.484375 9.214844 -7.414062 8.953125 -7.277344 C 8.660156 -7.121094 8.433594 -6.914062 8.269531 -6.652344 C 8.207031 -6.558594 8.164062 -6.472656 8.136719 -6.390625 L 8.132812 -6.390625 C 8.160156 -6.542969 8.175781 -6.761719 8.175781 -7.050781 L 8.175781 -8.746094 C 8.175781 -8.910156 8.140625 -9.042969 8.070312 -9.144531 C 7.832031 -9.488281 7.589844 -9.753906 7.339844 -9.941406 C 6.882812 -10.277344 6.214844 -10.722656 5.335938 -11.273438 C 3.960938 -12.101562 2.800781 -12.902344 1.84375 -13.675781 C 0.695312 -14.601562 -0.289062 -15.785156 -1.105469 -17.222656 C -1.996094 -18.792969 -2.441406 -20.605469 -2.441406 -22.664062 L -2.441406 -24.804688 C -2.441406 -28.316406 -1.339844 -31.019531 0.867188 -32.917969 C 2.933594 -34.699219 5.84375 -35.589844 9.59375 -35.589844 Z M 9.59375 -29.457031 C 7.363281 -29.457031 5.785156 -29.058594 4.867188 -28.269531 C 4.082031 -27.59375 3.691406 -26.441406 3.691406 -24.804688 L 3.691406 -22.664062 C 3.691406 -21.6875 3.871094 -20.882812 4.230469 -20.25 C 4.660156 -19.488281 5.152344 -18.886719 5.695312 -18.449219 C 6.4375 -17.851562 7.398438 -17.191406 8.585938 -16.476562 C 9.605469 -15.835938 10.410156 -15.300781 10.996094 -14.863281 C 11.789062 -14.277344 12.496094 -13.53125 13.121094 -12.628906 C 13.914062 -11.480469 14.308594 -10.183594 14.308594 -8.746094 L 14.308594 -7.050781 C 14.308594 -5.507812 14.027344 -4.285156 13.457031 -3.382812 C 13.042969 -2.722656 12.496094 -2.210938 11.824219 -1.855469 C 11.1875 -1.519531 10.488281 -1.347656 9.726562 -1.347656 C 9.046875 -1.347656 8.414062 -1.484375 7.832031 -1.753906 C 7.171875 -2.058594 6.628906 -2.507812 6.199219 -3.101562 C 5.582031 -3.957031 5.277344 -5.035156 5.277344 -6.335938 L 5.277344 -11.597656 L 8.34375 -11.597656 L 8.34375 -8.53125 L 0.667969 -8.53125 L 0.667969 -11.597656 L 3.738281 -11.597656 L 3.738281 -7.359375 C 3.738281 -5.484375 4.097656 -4.195312 4.820312 -3.488281 C 5.117188 -3.195312 5.59375 -2.957031 6.246094 -2.773438 C 7.125 -2.523438 8.242188 -2.398438 9.59375 -2.398438 C 11.9375 -2.398438 13.707031 -2.800781 14.898438 -3.609375 C 15.710938 -4.160156 16.117188 -5.394531 16.117188 -7.316406 L 16.117188 -10.171875 C 16.117188 -11.238281 15.914062 -12.121094 15.515625 -12.824219 C 15.03125 -13.671875 14.484375 -14.34375 13.871094 -14.847656 C 13.078125 -15.5 12.105469 -16.171875 10.957031 -16.867188 C 9.863281 -17.523438 9.050781 -18.03125 8.523438 -18.394531 C 7.796875 -18.894531 7.132812 -19.523438 6.527344 -20.277344 C 5.664062 -21.359375 5.230469 -22.554688 5.230469 -23.867188 L 5.230469 -25.472656 C 5.230469 -26.777344 5.53125 -27.855469 6.136719 -28.714844 C 6.5625 -29.316406 7.105469 -29.773438 7.765625 -30.085938 C 8.351562 -30.363281 8.992188 -30.503906 9.679688 -30.503906 C 10.382812 -30.503906 11.03125 -30.371094 11.628906 -30.105469 C 12.316406 -29.800781 12.886719 -29.347656 13.339844 -28.742188 C 14.015625 -27.839844 14.355469 -26.691406 14.355469 -25.296875 L 14.355469 -22.53125 L 11.289062 -22.53125 L 11.289062 -25.597656 L 18.648438 -25.597656 L 18.648438 -22.53125 L 15.582031 -22.53125 L 15.582031 -25.695312 C 15.582031 -26.402344 15.480469 -26.984375 15.277344 -27.441406 C 15.113281 -27.808594 14.867188 -28.117188 14.539062 -28.367188 C 13.574219 -29.09375 11.925781 -29.457031 9.59375 -29.457031 Z M 9.59375 -29.457031 "/></g></g></g><g fill="#ffffff" fill-opacity="1"><g transform="translate(162.17117, 63.122272)"><g><path d="M 10.921875 -32.515625 C 14.015625 -32.515625 16.320312 -31.695312 17.84375 -30.0625 C 19.363281 -28.425781 20.125 -26.316406 20.125 -23.734375 L 20.125 -19.046875 L 11.90625 -19.046875 L 11.90625 -25.296875 C 11.90625 -25.921875 11.800781 -26.390625 11.59375 -26.703125 C 11.382812 -27.015625 11 -27.171875 10.4375 -27.171875 C 9.957031 -27.171875 9.628906 -26.960938 9.453125 -26.546875 C 9.273438 -26.128906 9.1875 -25.679688 9.1875 -25.203125 L 9.1875 -6.640625 C 9.1875 -6.171875 9.273438 -5.726562 9.453125 -5.3125 C 9.628906 -4.894531 9.957031 -4.6875 10.4375 -4.6875 C 11 -4.6875 11.382812 -4.863281 11.59375 -5.21875 C 11.800781 -5.570312 11.90625 -6.125 11.90625 -6.875 L 11.90625 -13.734375 L 20.125 -13.734375 L 20.125 -8.296875 C 20.125 -6.660156 19.78125 -5.15625 19.09375 -3.78125 C 18.40625 -2.414062 17.351562 -1.332031 15.9375 -0.53125 C 14.53125 0.269531 12.800781 0.671875 10.75 0.671875 C 7.570312 0.671875 5.148438 -0.0820312 3.484375 -1.59375 C 1.816406 -3.113281 0.984375 -5.570312 0.984375 -8.96875 L 0.984375 -22.890625 C 0.984375 -26.035156 1.828125 -28.425781 3.515625 -30.0625 C 5.210938 -31.695312 7.679688 -32.515625 10.921875 -32.515625 Z M 10.921875 -32.515625 "/></g></g></g><g fill="#ffffff" fill-opacity="1"><g transform="translate(182.827079, 63.122272)"><g><path d="M 9.1875 -20.296875 L 12.3125 -20.296875 L 12.3125 -31.84375 L 20.515625 -31.84375 L 20.515625 0 L 12.3125 0 L 12.3125 -13.34375 L 9.1875 -13.34375 L 9.1875 0 L 0.984375 0 L 0.984375 -31.84375 L 9.1875 -31.84375 Z M 9.1875 -20.296875 "/></g></g></g><g fill="#ffffff" fill-opacity="1"><g transform="translate(204.330647, 63.122272)"><g><path d="M 20.4375 0 L 12.21875 0 L 11.828125 -5.625 L 8.828125 -5.625 L 8.4375 0 L 0.21875 0 L 4.234375 -31.84375 L 16.0625 -31.84375 Z M 8.828125 -11.234375 L 11.6875 -11.234375 L 10.265625 -26.234375 L 10.171875 -26.234375 Z M 8.828125 -11.234375 "/></g></g></g><g fill="#ffffff" fill-opacity="1"><g transform="translate(224.986556, 63.122272)"><g><path d="M 9.1875 -7.359375 C 9.1875 -6.378906 9.332031 -5.734375 9.625 -5.421875 C 9.925781 -5.109375 10.300781 -4.953125 10.75 -4.953125 C 11.195312 -4.953125 11.566406 -5.109375 11.859375 -5.421875 C 12.160156 -5.734375 12.3125 -6.378906 12.3125 -7.359375 L 12.3125 -31.84375 L 20.515625 -31.84375 L 20.515625 -8.515625 C 20.515625 -2.390625 17.257812 0.671875 10.75 0.671875 C 4.238281 0.671875 0.984375 -2.390625 0.984375 -8.515625 L 0.984375 -31.84375 L 9.1875 -31.84375 Z M 9.1875 -7.359375 "/></g></g></g><g fill="#ffffff" fill-opacity="1"><g transform="translate(246.490124, 63.122272)"><g><path d="M 14.8125 -25.421875 L 9.1875 -25.421875 L 9.1875 -19.578125 L 14 -19.578125 L 14 -13.421875 L 9.1875 -13.421875 L 9.1875 0 L 0.984375 0 L 0.984375 -31.84375 L 14.8125 -31.84375 Z M 14.8125 -25.421875 "/></g></g></g><g fill="#ffffff" fill-opacity="1"><g transform="translate(261.346317, 63.122272)"><g><path d="M 14.8125 -25.421875 L 9.1875 -25.421875 L 9.1875 -19.578125 L 14 -19.578125 L 14 -13.421875 L 9.1875 -13.421875 L 9.1875 0 L 0.984375 0 L 0.984375 -31.84375 L 14.8125 -31.84375 Z M 14.8125 -25.421875 "/></g></g></g><g fill="#ffffff" fill-opacity="1"><g transform="translate(276.202511, 63.122272)"><g><path d="M 14.859375 -25.421875 L 9.1875 -25.421875 L 9.1875 -19.578125 L 14.5 -19.578125 L 14.5 -13.421875 L 9.1875 -13.421875 L 9.1875 -6.421875 L 15.296875 -6.421875 L 15.296875 0 L 0.984375 0 L 0.984375 -31.84375 L 14.859375 -31.84375 Z M 14.859375 -25.421875 "/></g></g></g><g fill="#ffffff" fill-opacity="1"><g transform="translate(291.906364, 63.122272)"><g><path d="M 9.1875 -7.359375 C 9.1875 -6.378906 9.332031 -5.734375 9.625 -5.421875 C 9.925781 -5.109375 10.300781 -4.953125 10.75 -4.953125 C 11.195312 -4.953125 11.566406 -5.109375 11.859375 -5.421875 C 12.160156 -5.734375 12.3125 -6.378906 12.3125 -7.359375 L 12.3125 -31.84375 L 20.515625 -31.84375 L 20.515625 -8.515625 C 20.515625 -2.390625 17.257812 0.671875 10.75 0.671875 C 4.238281 0.671875 0.984375 -2.390625 0.984375 -8.515625 L 0.984375 -31.84375 L 9.1875 -31.84375 Z M 9.1875 -7.359375 "/></g></g></g><g fill="#ffffff" fill-opacity="1"><g transform="translate(313.409931, 63.122272)"><g><path d="M 19.359375 -25.5625 L 19.359375 -22.34375 C 19.359375 -20.59375 18.957031 -19.273438 18.15625 -18.390625 C 17.351562 -17.515625 16.148438 -17.019531 14.546875 -16.90625 L 14.546875 -16.8125 C 16.296875 -16.695312 17.585938 -16.191406 18.421875 -15.296875 C 19.253906 -14.410156 19.671875 -13.085938 19.671875 -11.328125 L 19.671875 0 L 12 0 L 12 -12.21875 C 12 -13.976562 11.285156 -14.859375 9.859375 -14.859375 C 9.535156 -14.859375 9.222656 -14.8125 8.921875 -14.71875 L 8.921875 0 L 0.984375 0 L 0.984375 -31.84375 L 10.578125 -31.84375 C 12.472656 -31.84375 14.03125 -31.703125 15.25 -31.421875 C 16.46875 -31.140625 17.457031 -30.546875 18.21875 -29.640625 C 18.976562 -28.734375 19.359375 -27.375 19.359375 -25.5625 Z M 9.5 -19.671875 C 10.445312 -19.671875 11.097656 -19.882812 11.453125 -20.3125 C 11.816406 -20.75 12 -21.25 12 -21.8125 L 12 -24.625 C 12 -25.15625 11.816406 -25.644531 11.453125 -26.09375 C 11.097656 -26.539062 10.460938 -26.765625 9.546875 -26.765625 L 8.921875 -26.765625 L 8.921875 -19.671875 Z M 9.5 -19.671875 "/></g></g></g><g fill="#ffffff" fill-opacity="1"><g transform="translate(334.065841, 63.122272)"><g><path d="M 9.59375 -32.515625 C 15.625 -32.515625 18.640625 -30.238281 18.640625 -25.6875 L 18.640625 -22.53125 L 11.28125 -22.53125 L 11.28125 -25.296875 C 11.28125 -26.722656 10.75 -27.4375 9.6875 -27.4375 C 8.757812 -27.4375 8.296875 -26.78125 8.296875 -25.46875 L 8.296875 -23.859375 C 8.296875 -23.265625 8.503906 -22.707031 8.921875 -22.1875 C 9.335938 -21.664062 9.78125 -21.242188 10.25 -20.921875 C 10.726562 -20.597656 11.488281 -20.125 12.53125 -19.5 C 13.8125 -18.71875 14.90625 -17.957031 15.8125 -17.21875 C 16.71875 -16.476562 17.503906 -15.519531 18.171875 -14.34375 C 18.847656 -13.164062 19.1875 -11.773438 19.1875 -10.171875 L 19.1875 -7.3125 C 19.1875 -4.3125 18.328125 -2.226562 16.609375 -1.0625 C 14.898438 0.09375 12.5625 0.671875 9.59375 0.671875 C 6.320312 0.671875 4.015625 0.0195312 2.671875 -1.28125 C 1.335938 -2.59375 0.671875 -4.617188 0.671875 -7.359375 L 0.671875 -11.59375 L 8.34375 -11.59375 L 8.34375 -6.328125 C 8.34375 -5.054688 8.800781 -4.421875 9.71875 -4.421875 C 10.226562 -4.421875 10.609375 -4.617188 10.859375 -5.015625 C 11.109375 -5.421875 11.234375 -6.097656 11.234375 -7.046875 L 11.234375 -8.75 C 11.234375 -9.550781 11.019531 -10.265625 10.59375 -10.890625 C 10.164062 -11.515625 9.691406 -12.019531 9.171875 -12.40625 C 8.648438 -12.789062 7.910156 -13.28125 6.953125 -13.875 C 5.679688 -14.644531 4.617188 -15.367188 3.765625 -16.046875 C 2.921875 -16.734375 2.1875 -17.628906 1.5625 -18.734375 C 0.9375 -19.835938 0.625 -21.144531 0.625 -22.65625 L 0.625 -24.796875 C 0.625 -29.941406 3.613281 -32.515625 9.59375 -32.515625 Z M 9.59375 -32.515625 "/></g></g></g></g></g></svg>